<?xml version="1.0" encoding="utf-8"?>
<!DOCTYPE svg
  PUBLIC '-//W3C//DTD SVG 1.0//EN'
  'http://www.w3.org/TR/2001/REC-SVG-20010904/DTD/svg10.dtd'>
<svg width="1280" height="800" preserveAspectRatio="xMinYMin meet" viewBox="0 0 1280 800" xmlns="http://www.w3.org/2000/svg" version="1.0" fill-rule="evenodd" xmlns:xlink="http://www.w3.org/1999/xlink">
	<title>...</title>
	<desc>...</desc>
	<clipPath id="clip">
		<rect x="0" y="0" width="1280" height="800"/>
	</clipPath>
	<g id="group" transform="scale(1,-1) translate(0,-800)" style="clip-path: url(#clip)">
		<g transform="">
			<rect x="0" y="0" width="1280" height="800" style="stroke: none; stroke-linecap: butt; stroke-width: 1.3; fill: rgb(6%,10%,10%); fill-rule: evenodd;"/>
			<text x="48" y="752" style="font-family: DVB; font-size: 22px;fill: rgb(93%,70%,43%); stroke:none;" transform="translate(0,1504) scale(1,-1)">SIGNAL / 47</text>
			<text x="48" y="703" style="font-family: DVB; font-size: 38px;fill: rgb(93%,91%,87%); stroke:none;" transform="translate(0,1406) scale(1,-1)">18 oppgaver med tydelige porter</text>
			<text x="48" y="668" style="font-family: DV; font-size: 19px;fill: rgb(71%,77%,74%); stroke:none;" transform="translate(0,1336) scale(1,-1)">Hovedrute / to lokale rekkefølgevalg / se registeret for bevis og feiltilbakemelding</text>
			<path d="M 48,647 L 1232,647 Z" style="stroke: rgb(31%,39%,36%); stroke-linecap: butt; stroke-width: 1.3;"/>
			<path d="M 48,60 L 1232,60 Z" style="stroke: rgb(31%,39%,36%); stroke-linecap: butt; stroke-width: 1.3;"/>
			<text x="48" y="29" style="font-family: DV; font-size: 17px;fill: rgb(71%,77%,74%); stroke:none;" transform="translate(0,58) scale(1,-1)">DESIGN GRAPH / v0.1 / PROPOSED - NOT GAMEPLAY</text>
			<text x="1186.19140625" y="29" style="font-family: DV; font-size: 18px;fill: rgb(93%,70%,43%); stroke:none;" transform="translate(0,58) scale(1,-1)">1986</text>
			<rect x="48" y="215" width="182" height="385" rx="5" ry="5" style="stroke: rgb(31%,39%,36%); stroke-linecap: butt; stroke-width: 1.3; fill: rgb(10%,16%,15%); fill-rule: evenodd;"/>
			<text x="62" y="565" style="font-family: DVB; font-size: 21px;fill: rgb(93%,70%,43%); stroke:none;" transform="translate(0,1130) scale(1,-1)">K1 / 50 min</text>
			<rect x="60" y="478" width="158" height="52" rx="3" ry="3" style="stroke: rgb(31%,39%,36%); stroke-linecap: butt; stroke-width: 1.3; fill: rgb(6%,10%,10%); fill-rule: evenodd;"/>
			<text x="69" y="497" style="font-family: DV; font-size: 18px;fill: rgb(93%,91%,87%); stroke:none;" transform="translate(0,994) scale(1,-1)">P01 Mottaker</text>
			<path d="M 139,478 L 139,460 Z" style="stroke: rgb(31%,39%,36%); stroke-linecap: butt; stroke-width: 2;"/>
			<polygon points="139 460, 144 470, 134 470" style="stroke: none; stroke-linecap: butt; stroke-width: 1; fill: rgb(31%,39%,36%); fill-rule: evenodd;"/>
			<rect x="60" y="408" width="158" height="52" rx="3" ry="3" style="stroke: rgb(31%,39%,36%); stroke-linecap: butt; stroke-width: 1.3; fill: rgb(6%,10%,10%); fill-rule: evenodd;"/>
			<text x="69" y="427" style="font-family: DV; font-size: 18px;fill: rgb(93%,91%,87%); stroke:none;" transform="translate(0,854) scale(1,-1)">P02 S-03</text>
			<path d="M 139,408 L 139,390 Z" style="stroke: rgb(31%,39%,36%); stroke-linecap: butt; stroke-width: 2;"/>
			<polygon points="139 390, 144 400, 134 400" style="stroke: none; stroke-linecap: butt; stroke-width: 1; fill: rgb(31%,39%,36%); fill-rule: evenodd;"/>
			<rect x="60" y="338" width="158" height="52" rx="3" ry="3" style="stroke: rgb(31%,39%,36%); stroke-linecap: butt; stroke-width: 1.3; fill: rgb(6%,10%,10%); fill-rule: evenodd;"/>
			<text x="69" y="357" style="font-family: DV; font-size: 18px;fill: rgb(93%,91%,87%); stroke:none;" transform="translate(0,714) scale(1,-1)">P03 B-12</text>
			<path d="M 230,375 L 248,375 Z" style="stroke: rgb(93%,70%,43%); stroke-linecap: butt; stroke-width: 2;"/>
			<polygon points="248 375, 238 380, 238 370" style="stroke: none; stroke-linecap: butt; stroke-width: 1; fill: rgb(93%,70%,43%); fill-rule: evenodd;"/>
			<rect x="248" y="215" width="182" height="385" rx="5" ry="5" style="stroke: rgb(31%,39%,36%); stroke-linecap: butt; stroke-width: 1.3; fill: rgb(10%,16%,15%); fill-rule: evenodd;"/>
			<text x="262" y="565" style="font-family: DVB; font-size: 21px;fill: rgb(93%,70%,43%); stroke:none;" transform="translate(0,1130) scale(1,-1)">K2 / 45 min</text>
			<rect x="260" y="478" width="158" height="52" rx="3" ry="3" style="stroke: rgb(31%,39%,36%); stroke-linecap: butt; stroke-width: 1.3; fill: rgb(6%,10%,10%); fill-rule: evenodd;"/>
			<text x="269" y="497" style="font-family: DV; font-size: 18px;fill: rgb(93%,91%,87%); stroke:none;" transform="translate(0,994) scale(1,-1)">P04 Rapport</text>
			<path d="M 339,478 L 339,460 Z" style="stroke: rgb(31%,39%,36%); stroke-linecap: butt; stroke-width: 2;"/>
			<polygon points="339 460, 344 470, 334 470" style="stroke: none; stroke-linecap: butt; stroke-width: 1; fill: rgb(31%,39%,36%); fill-rule: evenodd;"/>
			<rect x="260" y="408" width="158" height="52" rx="3" ry="3" style="stroke: rgb(31%,39%,36%); stroke-linecap: butt; stroke-width: 1.3; fill: rgb(6%,10%,10%); fill-rule: evenodd;"/>
			<text x="269" y="427" style="font-family: DV; font-size: 18px;fill: rgb(93%,91%,87%); stroke:none;" transform="translate(0,854) scale(1,-1)">P05 Kart</text>
			<path d="M 430,375 L 448,375 Z" style="stroke: rgb(93%,70%,43%); stroke-linecap: butt; stroke-width: 2;"/>
			<polygon points="448 375, 438 380, 438 370" style="stroke: none; stroke-linecap: butt; stroke-width: 1; fill: rgb(93%,70%,43%); fill-rule: evenodd;"/>
			<rect x="448" y="215" width="182" height="385" rx="5" ry="5" style="stroke: rgb(31%,39%,36%); stroke-linecap: butt; stroke-width: 1.3; fill: rgb(10%,16%,15%); fill-rule: evenodd;"/>
			<text x="462" y="565" style="font-family: DVB; font-size: 21px;fill: rgb(93%,70%,43%); stroke:none;" transform="translate(0,1130) scale(1,-1)">K3 / 60 min</text>
			<rect x="460" y="478" width="158" height="52" rx="3" ry="3" style="stroke: rgb(31%,39%,36%); stroke-linecap: butt; stroke-width: 1.3; fill: rgb(6%,10%,10%); fill-rule: evenodd;"/>
			<text x="469" y="497" style="font-family: DV; font-size: 18px;fill: rgb(93%,91%,87%); stroke:none;" transform="translate(0,994) scale(1,-1)">P06 Fastmerke</text>
			<text x="606" y="462" style="font-family: DV; font-size: 19px;fill: rgb(93%,70%,43%); stroke:none;" transform="translate(0,924) scale(1,-1)">↕</text>
			<rect x="460" y="408" width="158" height="52" rx="3" ry="3" style="stroke: rgb(31%,39%,36%); stroke-linecap: butt; stroke-width: 1.3; fill: rgb(6%,10%,10%); fill-rule: evenodd;"/>
			<text x="469" y="427" style="font-family: DV; font-size: 18px;fill: rgb(93%,91%,87%); stroke:none;" transform="translate(0,854) scale(1,-1)">P07 Nullprøve</text>
			<path d="M 539,408 L 539,390 Z" style="stroke: rgb(31%,39%,36%); stroke-linecap: butt; stroke-width: 2;"/>
			<polygon points="539 390, 544 400, 534 400" style="stroke: none; stroke-linecap: butt; stroke-width: 1; fill: rgb(31%,39%,36%); fill-rule: evenodd;"/>
			<rect x="460" y="338" width="158" height="52" rx="3" ry="3" style="stroke: rgb(31%,39%,36%); stroke-linecap: butt; stroke-width: 1.3; fill: rgb(6%,10%,10%); fill-rule: evenodd;"/>
			<text x="469" y="357" style="font-family: DV; font-size: 18px;fill: rgb(93%,91%,87%); stroke:none;" transform="translate(0,714) scale(1,-1)">P08 Kabel</text>
			<path d="M 539,338 L 539,320 Z" style="stroke: rgb(31%,39%,36%); stroke-linecap: butt; stroke-width: 2;"/>
			<polygon points="539 320, 544 330, 534 330" style="stroke: none; stroke-linecap: butt; stroke-width: 1; fill: rgb(31%,39%,36%); fill-rule: evenodd;"/>
			<rect x="460" y="268" width="158" height="52" rx="3" ry="3" style="stroke: rgb(31%,39%,36%); stroke-linecap: butt; stroke-width: 1.3; fill: rgb(6%,10%,10%); fill-rule: evenodd;"/>
			<text x="469" y="287" style="font-family: DV; font-size: 18px;fill: rgb(93%,91%,87%); stroke:none;" transform="translate(0,574) scale(1,-1)">P09 Tidslogg</text>
			<path d="M 630,375 L 648,375 Z" style="stroke: rgb(93%,70%,43%); stroke-linecap: butt; stroke-width: 2;"/>
			<polygon points="648 375, 638 380, 638 370" style="stroke: none; stroke-linecap: butt; stroke-width: 1; fill: rgb(93%,70%,43%); fill-rule: evenodd;"/>
			<rect x="648" y="215" width="182" height="385" rx="5" ry="5" style="stroke: rgb(31%,39%,36%); stroke-linecap: butt; stroke-width: 1.3; fill: rgb(10%,16%,15%); fill-rule: evenodd;"/>
			<text x="662" y="565" style="font-family: DVB; font-size: 21px;fill: rgb(93%,70%,43%); stroke:none;" transform="translate(0,1130) scale(1,-1)">K4 / 45 min</text>
			<rect x="660" y="478" width="158" height="52" rx="3" ry="3" style="stroke: rgb(31%,39%,36%); stroke-linecap: butt; stroke-width: 1.3; fill: rgb(6%,10%,10%); fill-rule: evenodd;"/>
			<text x="669" y="497" style="font-family: DV; font-size: 18px;fill: rgb(93%,91%,87%); stroke:none;" transform="translate(0,994) scale(1,-1)">P10 Vis bevis</text>
			<path d="M 739,478 L 739,460 Z" style="stroke: rgb(31%,39%,36%); stroke-linecap: butt; stroke-width: 2;"/>
			<polygon points="739 460, 744 470, 734 470" style="stroke: none; stroke-linecap: butt; stroke-width: 1; fill: rgb(31%,39%,36%); fill-rule: evenodd;"/>
			<rect x="660" y="408" width="158" height="52" rx="3" ry="3" style="stroke: rgb(31%,39%,36%); stroke-linecap: butt; stroke-width: 1.3; fill: rgb(6%,10%,10%); fill-rule: evenodd;"/>
			<text x="669" y="427" style="font-family: DV; font-size: 18px;fill: rgb(93%,91%,87%); stroke:none;" transform="translate(0,854) scale(1,-1)">P11 Motiv</text>
			<text x="806" y="392" style="font-family: DV; font-size: 19px;fill: rgb(93%,70%,43%); stroke:none;" transform="translate(0,784) scale(1,-1)">↕</text>
			<rect x="660" y="338" width="158" height="52" rx="3" ry="3" style="stroke: rgb(31%,39%,36%); stroke-linecap: butt; stroke-width: 1.3; fill: rgb(6%,10%,10%); fill-rule: evenodd;"/>
			<text x="669" y="357" style="font-family: DV; font-size: 18px;fill: rgb(93%,91%,87%); stroke:none;" transform="translate(0,714) scale(1,-1)">P12 Stemme</text>
			<path d="M 830,375 L 848,375 Z" style="stroke: rgb(93%,70%,43%); stroke-linecap: butt; stroke-width: 2;"/>
			<polygon points="848 375, 838 380, 838 370" style="stroke: none; stroke-linecap: butt; stroke-width: 1; fill: rgb(93%,70%,43%); fill-rule: evenodd;"/>
			<rect x="848" y="215" width="182" height="385" rx="5" ry="5" style="stroke: rgb(31%,39%,36%); stroke-linecap: butt; stroke-width: 1.3; fill: rgb(10%,16%,15%); fill-rule: evenodd;"/>
			<text x="862" y="565" style="font-family: DVB; font-size: 21px;fill: rgb(93%,70%,43%); stroke:none;" transform="translate(0,1130) scale(1,-1)">K5 / 65 min</text>
			<rect x="860" y="478" width="158" height="52" rx="3" ry="3" style="stroke: rgb(31%,39%,36%); stroke-linecap: butt; stroke-width: 1.3; fill: rgb(6%,10%,10%); fill-rule: evenodd;"/>
			<text x="869" y="497" style="font-family: DV; font-size: 18px;fill: rgb(93%,91%,87%); stroke:none;" transform="translate(0,994) scale(1,-1)">P13 Svar</text>
			<path d="M 939,478 L 939,460 Z" style="stroke: rgb(31%,39%,36%); stroke-linecap: butt; stroke-width: 2;"/>
			<polygon points="939 460, 944 470, 934 470" style="stroke: none; stroke-linecap: butt; stroke-width: 1; fill: rgb(31%,39%,36%); fill-rule: evenodd;"/>
			<rect x="860" y="408" width="158" height="52" rx="3" ry="3" style="stroke: rgb(31%,39%,36%); stroke-linecap: butt; stroke-width: 1.3; fill: rgb(6%,10%,10%); fill-rule: evenodd;"/>
			<text x="869" y="427" style="font-family: DV; font-size: 18px;fill: rgb(93%,91%,87%); stroke:none;" transform="translate(0,854) scale(1,-1)">P14 Geometri</text>
			<path d="M 939,408 L 939,390 Z" style="stroke: rgb(31%,39%,36%); stroke-linecap: butt; stroke-width: 2;"/>
			<polygon points="939 390, 944 400, 934 400" style="stroke: none; stroke-linecap: butt; stroke-width: 1; fill: rgb(31%,39%,36%); fill-rule: evenodd;"/>
			<rect x="860" y="338" width="158" height="52" rx="3" ry="3" style="stroke: rgb(31%,39%,36%); stroke-linecap: butt; stroke-width: 1.3; fill: rgb(6%,10%,10%); fill-rule: evenodd;"/>
			<text x="869" y="357" style="font-family: DV; font-size: 18px;fill: rgb(93%,91%,87%); stroke:none;" transform="translate(0,714) scale(1,-1)">P15 Maskering</text>
			<path d="M 1030,375 L 1048,375 Z" style="stroke: rgb(93%,70%,43%); stroke-linecap: butt; stroke-width: 2;"/>
			<polygon points="1048 375, 1038 380, 1038 370" style="stroke: none; stroke-linecap: butt; stroke-width: 1; fill: rgb(93%,70%,43%); fill-rule: evenodd;"/>
			<rect x="1048" y="215" width="182" height="385" rx="5" ry="5" style="stroke: rgb(31%,39%,36%); stroke-linecap: butt; stroke-width: 1.3; fill: rgb(10%,16%,15%); fill-rule: evenodd;"/>
			<text x="1062" y="565" style="font-family: DVB; font-size: 21px;fill: rgb(93%,70%,43%); stroke:none;" transform="translate(0,1130) scale(1,-1)">K6 / 55 min</text>
			<rect x="1060" y="478" width="158" height="52" rx="3" ry="3" style="stroke: rgb(31%,39%,36%); stroke-linecap: butt; stroke-width: 1.3; fill: rgb(6%,10%,10%); fill-rule: evenodd;"/>
			<text x="1069" y="497" style="font-family: DV; font-size: 18px;fill: rgb(93%,91%,87%); stroke:none;" transform="translate(0,994) scale(1,-1)">P16 Valg</text>
			<path d="M 1139,478 L 1139,460 Z" style="stroke: rgb(31%,39%,36%); stroke-linecap: butt; stroke-width: 2;"/>
			<polygon points="1139 460, 1144 470, 1134 470" style="stroke: none; stroke-linecap: butt; stroke-width: 1; fill: rgb(31%,39%,36%); fill-rule: evenodd;"/>
			<rect x="1060" y="408" width="158" height="52" rx="3" ry="3" style="stroke: rgb(31%,39%,36%); stroke-linecap: butt; stroke-width: 1.3; fill: rgb(6%,10%,10%); fill-rule: evenodd;"/>
			<text x="1069" y="427" style="font-family: DV; font-size: 18px;fill: rgb(93%,91%,87%); stroke:none;" transform="translate(0,854) scale(1,-1)">P17 Utfør</text>
			<rect x="48" y="156" width="222.6328125" height="29" style="stroke: none; stroke-linecap: butt; stroke-width: 1.3; fill: rgb(93%,70%,43%); fill-rule: evenodd;"/>
			<text x="59" y="165" style="font-family: DVB; font-size: 16px;fill: rgb(9%,14%,12%); stroke:none;" transform="translate(0,330) scale(1,-1)">VALGFRI REKKEFØLGE</text>
			<text x="303" y="163" style="font-family: DV; font-size: 20px;fill: rgb(71%,77%,74%); stroke:none;" transform="translate(0,326) scale(1,-1)">P06 ↔ P07 og P11 ↔ P12. Begge delene kreves ved neste port.</text>
			<text x="48" y="106" style="font-family: DVB; font-size: 23px;fill: rgb(93%,70%,43%); stroke:none;" transform="translate(0,212) scale(1,-1)">P18 / EPILOG / 10 min</text>
			<text x="385" y="106" style="font-family: DV; font-size: 22px;fill: rgb(93%,91%,87%); stroke:none;" transform="translate(0,212) scale(1,-1)">Ferdig rapport og konsekvens. Totalbudsjett: 330 minutter.</text>
		</g>
	</g>
</svg>
