# https://github.com/mikedh/trimesh

o Housing
v -0.57500000 0.13000000 -0.39000000
v -0.57500000 0.13000000 0.39000000
v -0.57500000 0.95000000 -0.39000000
v -0.57500000 0.95000000 0.39000000
v 0.57500000 0.13000000 -0.39000000
v 0.57500000 0.13000000 0.39000000
v 0.57500000 0.95000000 -0.39000000
v 0.57500000 0.95000000 0.39000000
f 2 4 1
f 5 2 1
f 1 4 3
f 3 5 1
f 2 8 4
f 6 2 5
f 6 8 2
f 4 8 3
f 7 5 3
f 3 8 7
f 7 6 5
f 8 6 7

o Screen
v -0.41000000 0.35500000 -0.42250000
v -0.41000000 0.35500000 -0.38750000
v -0.41000000 0.84500000 -0.42250000
v -0.41000000 0.84500000 -0.38750000
v 0.41000000 0.35500000 -0.42250000
v 0.41000000 0.35500000 -0.38750000
v 0.41000000 0.84500000 -0.42250000
v 0.41000000 0.84500000 -0.38750000
f 10 12 9
f 13 10 9
f 9 12 11
f 11 13 9
f 10 16 12
f 14 10 13
f 14 16 10
f 12 16 11
f 15 13 11
f 11 16 15
f 15 14 13
f 16 14 15

o KeyboardBase
v -0.53000000 0.03000000 -0.49000000
v -0.53000000 0.03000000 -0.01000000
v -0.53000000 0.13000000 -0.49000000
v -0.53000000 0.13000000 -0.01000000
v 0.53000000 0.03000000 -0.49000000
v 0.53000000 0.03000000 -0.01000000
v 0.53000000 0.13000000 -0.49000000
v 0.53000000 0.13000000 -0.01000000
f 18 20 17
f 21 18 17
f 17 20 19
f 19 21 17
f 18 24 20
f 22 18 21
f 22 24 18
f 20 24 19
f 23 21 19
f 19 24 23
f 23 22 21
f 24 22 23

o Key_35
v 0.38250000 0.12750000 -0.17000000
v 0.38250000 0.12750000 -0.11000000
v 0.38250000 0.15250000 -0.17000000
v 0.38250000 0.15250000 -0.11000000
v 0.45750000 0.12750000 -0.17000000
v 0.45750000 0.12750000 -0.11000000
v 0.45750000 0.15250000 -0.17000000
v 0.45750000 0.15250000 -0.11000000
f 26 28 25
f 29 26 25
f 25 28 27
f 27 29 25
f 26 32 28
f 30 26 29
f 30 32 26
f 28 32 27
f 31 29 27
f 27 32 31
f 31 30 29
f 32 30 31

