# https://github.com/mikedh/trimesh

o Cup
v 0.00000000 0.36000000 -0.00000000
v 0.15000000 0.36000000 -0.00000000
v 0.15000000 0.00000000 0.00000000
v 0.00000000 0.00000000 0.00000000
v 0.14711779 0.36000000 0.02926355
v 0.14711779 0.00000000 0.02926355
v 0.13858193 0.36000000 0.05740251
v 0.13858193 0.00000000 0.05740251
v 0.12472044 0.36000000 0.08333553
v 0.12472044 0.00000000 0.08333553
v 0.10606602 0.36000000 0.10606602
v 0.10606602 0.00000000 0.10606602
v 0.08333553 0.36000000 0.12472044
v 0.08333553 0.00000000 0.12472044
v 0.05740251 0.36000000 0.13858193
v 0.05740251 0.00000000 0.13858193
v 0.02926355 0.36000000 0.14711779
v 0.02926355 0.00000000 0.14711779
v 0.00000000 0.36000000 0.15000000
v 0.00000000 0.00000000 0.15000000
v -0.02926355 0.36000000 0.14711779
v -0.02926355 0.00000000 0.14711779
v -0.05740251 0.36000000 0.13858193
v -0.05740251 0.00000000 0.13858193
v -0.08333553 0.36000000 0.12472044
v -0.08333553 0.00000000 0.12472044
v -0.10606602 0.36000000 0.10606602
v -0.10606602 0.00000000 0.10606602
v -0.12472044 0.36000000 0.08333553
v -0.12472044 0.00000000 0.08333553
v -0.13858193 0.36000000 0.05740251
v -0.13858193 0.00000000 0.05740251
v -0.14711779 0.36000000 0.02926355
v -0.14711779 0.00000000 0.02926355
v -0.15000000 0.36000000 0.00000000
v -0.15000000 0.00000000 0.00000000
v -0.14711779 0.36000000 -0.02926355
v -0.14711779 0.00000000 -0.02926355
v -0.13858193 0.36000000 -0.05740251
v -0.13858193 0.00000000 -0.05740251
v -0.12472044 0.36000000 -0.08333553
v -0.12472044 0.00000000 -0.08333553
v -0.10606602 0.36000000 -0.10606602
v -0.10606602 0.00000000 -0.10606602
v -0.08333553 0.36000000 -0.12472044
v -0.08333553 0.00000000 -0.12472044
v -0.05740251 0.36000000 -0.13858193
v -0.05740251 0.00000000 -0.13858193
v -0.02926355 0.36000000 -0.14711779
v -0.02926355 0.00000000 -0.14711779
v -0.00000000 0.36000000 -0.15000000
v -0.00000000 0.00000000 -0.15000000
v 0.02926355 0.36000000 -0.14711779
v 0.02926355 0.00000000 -0.14711779
v 0.05740251 0.36000000 -0.13858193
v 0.05740251 0.00000000 -0.13858193
v 0.08333553 0.36000000 -0.12472044
v 0.08333553 0.00000000 -0.12472044
v 0.10606602 0.36000000 -0.10606602
v 0.10606602 0.00000000 -0.10606602
v 0.12472044 0.36000000 -0.08333553
v 0.12472044 0.00000000 -0.08333553
v 0.13858193 0.36000000 -0.05740251
v 0.13858193 0.00000000 -0.05740251
v 0.14711779 0.36000000 -0.02926355
v 0.14711779 0.00000000 -0.02926355
f 2 1 5
f 2 5 3
f 3 5 6
f 3 6 4
f 5 1 7
f 5 7 6
f 6 7 8
f 6 8 4
f 7 1 9
f 7 9 8
f 8 9 10
f 8 10 4
f 9 1 11
f 9 11 10
f 10 11 12
f 10 12 4
f 11 1 13
f 11 13 12
f 12 13 14
f 12 14 4
f 13 1 15
f 13 15 14
f 14 15 16
f 14 16 4
f 15 1 17
f 15 17 16
f 16 17 18
f 16 18 4
f 17 1 19
f 17 19 18
f 18 19 20
f 18 20 4
f 19 1 21
f 19 21 20
f 20 21 22
f 20 22 4
f 21 1 23
f 21 23 22
f 22 23 24
f 22 24 4
f 23 1 25
f 23 25 24
f 24 25 26
f 24 26 4
f 25 1 27
f 25 27 26
f 26 27 28
f 26 28 4
f 27 1 29
f 27 29 28
f 28 29 30
f 28 30 4
f 29 1 31
f 29 31 30
f 30 31 32
f 30 32 4
f 31 1 33
f 31 33 32
f 32 33 34
f 32 34 4
f 33 1 35
f 33 35 34
f 34 35 36
f 34 36 4
f 35 1 37
f 35 37 36
f 36 37 38
f 36 38 4
f 37 1 39
f 37 39 38
f 38 39 40
f 38 40 4
f 39 1 41
f 39 41 40
f 40 41 42
f 40 42 4
f 41 1 43
f 41 43 42
f 42 43 44
f 42 44 4
f 43 1 45
f 43 45 44
f 44 45 46
f 44 46 4
f 45 1 47
f 45 47 46
f 46 47 48
f 46 48 4
f 47 1 49
f 47 49 48
f 48 49 50
f 48 50 4
f 49 1 51
f 49 51 50
f 50 51 52
f 50 52 4
f 51 1 53
f 51 53 52
f 52 53 54
f 52 54 4
f 53 1 55
f 53 55 54
f 54 55 56
f 54 56 4
f 55 1 57
f 55 57 56
f 56 57 58
f 56 58 4
f 57 1 59
f 57 59 58
f 58 59 60
f 58 60 4
f 59 1 61
f 59 61 60
f 60 61 62
f 60 62 4
f 61 1 63
f 61 63 62
f 62 63 64
f 62 64 4
f 63 1 65
f 63 65 64
f 64 65 66
f 64 66 4
f 65 1 2
f 65 2 66
f 66 2 3
f 66 3 4

o Handle
v 0.32000000 0.19000000 0.00000000
v 0.31522542 0.17530537 0.00000000
v 0.30272542 0.16622359 0.00000000
v 0.28727458 0.16622359 0.00000000
v 0.27477458 0.17530537 0.00000000
v 0.27000000 0.19000000 0.00000000
v 0.27477458 0.20469463 -0.00000000
v 0.28727458 0.21377641 -0.00000000
v 0.30272542 0.21377641 -0.00000000
v 0.31522542 0.20469463 -0.00000000
v 0.31522962 0.19000000 0.03623467
v 0.31061773 0.17530537 0.03499892
v 0.29854366 0.16622359 0.03176368
v 0.28361928 0.16622359 0.02776470
v 0.27154521 0.17530537 0.02452947
v 0.26693332 0.19000000 0.02329371
v 0.27154521 0.20469463 0.02452947
v 0.28361928 0.21377641 0.02776470
v 0.29854366 0.21377641 0.03176368
v 0.31061773 0.20469463 0.03499892
v 0.30124356 0.19000000 0.07000000
v 0.29710865 0.17530537 0.06761271
v 0.28628334 0.16622359 0.06136271
v 0.27290251 0.16622359 0.05363729
v 0.26207719 0.17530537 0.04738729
v 0.25794229 0.19000000 0.04500000
v 0.26207719 0.20469463 0.04738729
v 0.27290251 0.21377641 0.05363729
v 0.28628334 0.21377641 0.06136271
v 0.29710865 0.20469463 0.06761271
v 0.27899495 0.19000000 0.09899495
v 0.27561881 0.17530537 0.09561881
v 0.26677998 0.16622359 0.08677998
v 0.25585458 0.16622359 0.07585458
v 0.24701574 0.17530537 0.06701574
v 0.24363961 0.19000000 0.06363961
v 0.24701574 0.20469463 0.06701574
v 0.25585458 0.21377641 0.07585458
v 0.26677998 0.21377641 0.08677998
v 0.27561881 0.20469463 0.09561881
v 0.25000000 0.19000000 0.12124356
v 0.24761271 0.17530537 0.11710865
v 0.24136271 0.16622359 0.10628334
v 0.23363729 0.16622359 0.09290251
v 0.22738729 0.17530537 0.08207719
v 0.22500000 0.19000000 0.07794229
v 0.22738729 0.20469463 0.08207719
v 0.23363729 0.21377641 0.09290251
v 0.24136271 0.21377641 0.10628334
v 0.24761271 0.20469463 0.11710865
v 0.21623467 0.19000000 0.13522962
v 0.21499892 0.17530537 0.13061773
v 0.21176368 0.16622359 0.11854366
v 0.20776470 0.16622359 0.10361928
v 0.20452947 0.17530537 0.09154521
v 0.20329371 0.19000000 0.08693332
v 0.20452947 0.20469463 0.09154521
v 0.20776470 0.21377641 0.10361928
v 0.21176368 0.21377641 0.11854366
v 0.21499892 0.20469463 0.13061773
v 0.18000000 0.19000000 0.14000000
v 0.18000000 0.17530537 0.13522542
v 0.18000000 0.16622359 0.12272542
v 0.18000000 0.16622359 0.10727458
v 0.18000000 0.17530537 0.09477458
v 0.18000000 0.19000000 0.09000000
v 0.18000000 0.20469463 0.09477458
v 0.18000000 0.21377641 0.10727458
v 0.18000000 0.21377641 0.12272542
v 0.18000000 0.20469463 0.13522542
v 0.14376533 0.19000000 0.13522962
v 0.14500108 0.17530537 0.13061773
v 0.14823632 0.16622359 0.11854366
v 0.15223530 0.16622359 0.10361928
v 0.15547053 0.17530537 0.09154521
v 0.15670629 0.19000000 0.08693332
v 0.15547053 0.20469463 0.09154521
v 0.15223530 0.21377641 0.10361928
v 0.14823632 0.21377641 0.11854366
v 0.14500108 0.20469463 0.13061773
v 0.11000000 0.19000000 0.12124356
v 0.11238729 0.17530537 0.11710865
v 0.11863729 0.16622359 0.10628334
v 0.12636271 0.16622359 0.09290251
v 0.13261271 0.17530537 0.08207719
v 0.13500000 0.19000000 0.07794229
v 0.13261271 0.20469463 0.08207719
v 0.12636271 0.21377641 0.09290251
v 0.11863729 0.21377641 0.10628334
v 0.11238729 0.20469463 0.11710865
v 0.08100505 0.19000000 0.09899495
v 0.08438119 0.17530537 0.09561881
v 0.09322002 0.16622359 0.08677998
v 0.10414542 0.16622359 0.07585458
v 0.11298426 0.17530537 0.06701574
v 0.11636039 0.19000000 0.06363961
v 0.11298426 0.20469463 0.06701574
v 0.10414542 0.21377641 0.07585458
v 0.09322002 0.21377641 0.08677998
v 0.08438119 0.20469463 0.09561881
v 0.05875644 0.19000000 0.07000000
v 0.06289135 0.17530537 0.06761271
v 0.07371666 0.16622359 0.06136271
v 0.08709749 0.16622359 0.05363729
v 0.09792281 0.17530537 0.04738729
v 0.10205771 0.19000000 0.04500000
v 0.09792281 0.20469463 0.04738729
v 0.08709749 0.21377641 0.05363729
v 0.07371666 0.21377641 0.06136271
v 0.06289135 0.20469463 0.06761271
v 0.04477038 0.19000000 0.03623467
v 0.04938227 0.17530537 0.03499892
v 0.06145634 0.16622359 0.03176368
v 0.07638072 0.16622359 0.02776470
v 0.08845479 0.17530537 0.02452947
v 0.09306668 0.19000000 0.02329371
v 0.08845479 0.20469463 0.02452947
v 0.07638072 0.21377641 0.02776470
v 0.06145634 0.21377641 0.03176368
v 0.04938227 0.20469463 0.03499892
v 0.04000000 0.19000000 0.00000000
v 0.04477458 0.17530537 0.00000000
v 0.05727458 0.16622359 0.00000000
v 0.07272542 0.16622359 0.00000000
v 0.08522542 0.17530537 0.00000000
v 0.09000000 0.19000000 0.00000000
v 0.08522542 0.20469463 0.00000000
v 0.07272542 0.21377641 0.00000000
v 0.05727458 0.21377641 0.00000000
v 0.04477458 0.20469463 0.00000000
v 0.04477038 0.19000000 -0.03623467
v 0.04938227 0.17530537 -0.03499892
v 0.06145634 0.16622359 -0.03176368
v 0.07638072 0.16622359 -0.02776470
v 0.08845479 0.17530537 -0.02452947
v 0.09306668 0.19000000 -0.02329371
v 0.08845479 0.20469463 -0.02452947
v 0.07638072 0.21377641 -0.02776470
v 0.06145634 0.21377641 -0.03176368
v 0.04938227 0.20469463 -0.03499892
v 0.05875644 0.19000000 -0.07000000
v 0.06289135 0.17530537 -0.06761271
v 0.07371666 0.16622359 -0.06136271
v 0.08709749 0.16622359 -0.05363729
v 0.09792281 0.17530537 -0.04738729
v 0.10205771 0.19000000 -0.04500000
v 0.09792281 0.20469463 -0.04738729
v 0.08709749 0.21377641 -0.05363729
v 0.07371666 0.21377641 -0.06136271
v 0.06289135 0.20469463 -0.06761271
v 0.08100505 0.19000000 -0.09899495
v 0.08438119 0.17530537 -0.09561881
v 0.09322002 0.16622359 -0.08677998
v 0.10414542 0.16622359 -0.07585458
v 0.11298426 0.17530537 -0.06701574
v 0.11636039 0.19000000 -0.06363961
v 0.11298426 0.20469463 -0.06701574
v 0.10414542 0.21377641 -0.07585458
v 0.09322002 0.21377641 -0.08677998
v 0.08438119 0.20469463 -0.09561881
v 0.11000000 0.19000000 -0.12124356
v 0.11238729 0.17530537 -0.11710865
v 0.11863729 0.16622359 -0.10628334
v 0.12636271 0.16622359 -0.09290251
v 0.13261271 0.17530537 -0.08207719
v 0.13500000 0.19000000 -0.07794229
v 0.13261271 0.20469463 -0.08207719
v 0.12636271 0.21377641 -0.09290251
v 0.11863729 0.21377641 -0.10628334
v 0.11238729 0.20469463 -0.11710865
v 0.14376533 0.19000000 -0.13522962
v 0.14500108 0.17530537 -0.13061773
v 0.14823632 0.16622359 -0.11854366
v 0.15223530 0.16622359 -0.10361928
v 0.15547053 0.17530537 -0.09154521
v 0.15670629 0.19000000 -0.08693332
v 0.15547053 0.20469463 -0.09154521
v 0.15223530 0.21377641 -0.10361928
v 0.14823632 0.21377641 -0.11854366
v 0.14500108 0.20469463 -0.13061773
v 0.18000000 0.19000000 -0.14000000
v 0.18000000 0.17530537 -0.13522542
v 0.18000000 0.16622359 -0.12272542
v 0.18000000 0.16622359 -0.10727458
v 0.18000000 0.17530537 -0.09477458
v 0.18000000 0.19000000 -0.09000000
v 0.18000000 0.20469463 -0.09477458
v 0.18000000 0.21377641 -0.10727458
v 0.18000000 0.21377641 -0.12272542
v 0.18000000 0.20469463 -0.13522542
v 0.21623467 0.19000000 -0.13522962
v 0.21499892 0.17530537 -0.13061773
v 0.21176368 0.16622359 -0.11854366
v 0.20776470 0.16622359 -0.10361928
v 0.20452947 0.17530537 -0.09154521
v 0.20329371 0.19000000 -0.08693332
v 0.20452947 0.20469463 -0.09154521
v 0.20776470 0.21377641 -0.10361928
v 0.21176368 0.21377641 -0.11854366
v 0.21499892 0.20469463 -0.13061773
v 0.25000000 0.19000000 -0.12124356
v 0.24761271 0.17530537 -0.11710865
v 0.24136271 0.16622359 -0.10628334
v 0.23363729 0.16622359 -0.09290251
v 0.22738729 0.17530537 -0.08207719
v 0.22500000 0.19000000 -0.07794229
v 0.22738729 0.20469463 -0.08207719
v 0.23363729 0.21377641 -0.09290251
v 0.24136271 0.21377641 -0.10628334
v 0.24761271 0.20469463 -0.11710865
v 0.27899495 0.19000000 -0.09899495
v 0.27561881 0.17530537 -0.09561881
v 0.26677998 0.16622359 -0.08677998
v 0.25585458 0.16622359 -0.07585458
v 0.24701574 0.17530537 -0.06701574
v 0.24363961 0.19000000 -0.06363961
v 0.24701574 0.20469463 -0.06701574
v 0.25585458 0.21377641 -0.07585458
v 0.26677998 0.21377641 -0.08677998
v 0.27561881 0.20469463 -0.09561881
v 0.30124356 0.19000000 -0.07000000
v 0.29710865 0.17530537 -0.06761271
v 0.28628334 0.16622359 -0.06136271
v 0.27290251 0.16622359 -0.05363729
v 0.26207719 0.17530537 -0.04738729
v 0.25794229 0.19000000 -0.04500000
v 0.26207719 0.20469463 -0.04738729
v 0.27290251 0.21377641 -0.05363729
v 0.28628334 0.21377641 -0.06136271
v 0.29710865 0.20469463 -0.06761271
v 0.31522962 0.19000000 -0.03623467
v 0.31061773 0.17530537 -0.03499892
v 0.29854366 0.16622359 -0.03176368
v 0.28361928 0.16622359 -0.02776470
v 0.27154521 0.17530537 -0.02452947
v 0.26693332 0.19000000 -0.02329371
v 0.27154521 0.20469463 -0.02452947
v 0.28361928 0.21377641 -0.02776470
v 0.29854366 0.21377641 -0.03176368
v 0.31061773 0.20469463 -0.03499892
f 67 77 68
f 68 77 78
f 68 78 69
f 69 78 79
f 69 79 70
f 70 79 80
f 70 80 71
f 71 80 81
f 71 81 72
f 72 81 82
f 72 82 73
f 73 82 83
f 73 83 74
f 74 83 84
f 74 84 75
f 75 84 85
f 75 85 76
f 76 85 86
f 76 86 67
f 67 86 77
f 77 87 78
f 78 87 88
f 78 88 79
f 79 88 89
f 79 89 80
f 80 89 90
f 80 90 81
f 81 90 91
f 81 91 82
f 82 91 92
f 82 92 83
f 83 92 93
f 83 93 84
f 84 93 94
f 84 94 85
f 85 94 95
f 85 95 86
f 86 95 96
f 86 96 77
f 77 96 87
f 87 97 88
f 88 97 98
f 88 98 89
f 89 98 99
f 89 99 90
f 90 99 100
f 90 100 91
f 91 100 101
f 91 101 92
f 92 101 102
f 92 102 93
f 93 102 103
f 93 103 94
f 94 103 104
f 94 104 95
f 95 104 105
f 95 105 96
f 96 105 106
f 96 106 87
f 87 106 97
f 97 107 98
f 98 107 108
f 98 108 99
f 99 108 109
f 99 109 100
f 100 109 110
f 100 110 101
f 101 110 111
f 101 111 102
f 102 111 112
f 102 112 103
f 103 112 113
f 103 113 104
f 104 113 114
f 104 114 105
f 105 114 115
f 105 115 106
f 106 115 116
f 106 116 97
f 97 116 107
f 107 117 108
f 108 117 118
f 108 118 109
f 109 118 119
f 109 119 110
f 110 119 120
f 110 120 111
f 111 120 121
f 111 121 112
f 112 121 122
f 112 122 113
f 113 122 123
f 113 123 114
f 114 123 124
f 114 124 115
f 115 124 125
f 115 125 116
f 116 125 126
f 116 126 107
f 107 126 117
f 117 127 118
f 118 127 128
f 118 128 119
f 119 128 129
f 119 129 120
f 120 129 130
f 120 130 121
f 121 130 131
f 121 131 122
f 122 131 132
f 122 132 123
f 123 132 133
f 123 133 124
f 124 133 134
f 124 134 125
f 125 134 135
f 125 135 126
f 126 135 136
f 126 136 117
f 117 136 127
f 127 137 128
f 128 137 138
f 128 138 129
f 129 138 139
f 129 139 130
f 130 139 140
f 130 140 131
f 131 140 141
f 131 141 132
f 132 141 142
f 132 142 133
f 133 142 143
f 133 143 134
f 134 143 144
f 134 144 135
f 135 144 145
f 135 145 136
f 136 145 146
f 136 146 127
f 127 146 137
f 137 147 138
f 138 147 148
f 138 148 139
f 139 148 149
f 139 149 140
f 140 149 150
f 140 150 141
f 141 150 151
f 141 151 142
f 142 151 152
f 142 152 143
f 143 152 153
f 143 153 144
f 144 153 154
f 144 154 145
f 145 154 155
f 145 155 146
f 146 155 156
f 146 156 137
f 137 156 147
f 147 157 148
f 148 157 158
f 148 158 149
f 149 158 159
f 149 159 150
f 150 159 160
f 150 160 151
f 151 160 161
f 151 161 152
f 152 161 162
f 152 162 153
f 153 162 163
f 153 163 154
f 154 163 164
f 154 164 155
f 155 164 165
f 155 165 156
f 156 165 166
f 156 166 147
f 147 166 157
f 157 167 158
f 158 167 168
f 158 168 159
f 159 168 169
f 159 169 160
f 160 169 170
f 160 170 161
f 161 170 171
f 161 171 162
f 162 171 172
f 162 172 163
f 163 172 173
f 163 173 164
f 164 173 174
f 164 174 165
f 165 174 175
f 165 175 166
f 166 175 176
f 166 176 157
f 157 176 167
f 167 177 168
f 168 177 178
f 168 178 169
f 169 178 179
f 169 179 170
f 170 179 180
f 170 180 171
f 171 180 181
f 171 181 172
f 172 181 182
f 172 182 173
f 173 182 183
f 173 183 174
f 174 183 184
f 174 184 175
f 175 184 185
f 175 185 176
f 176 185 186
f 176 186 167
f 167 186 177
f 177 187 178
f 178 187 188
f 178 188 179
f 179 188 189
f 179 189 180
f 180 189 190
f 180 190 181
f 181 190 191
f 181 191 182
f 182 191 192
f 182 192 183
f 183 192 193
f 183 193 184
f 184 193 194
f 184 194 185
f 185 194 195
f 185 195 186
f 186 195 196
f 186 196 177
f 177 196 187
f 187 197 188
f 188 197 198
f 188 198 189
f 189 198 199
f 189 199 190
f 190 199 200
f 190 200 191
f 191 200 201
f 191 201 192
f 192 201 202
f 192 202 193
f 193 202 203
f 193 203 194
f 194 203 204
f 194 204 195
f 195 204 205
f 195 205 196
f 196 205 206
f 196 206 187
f 187 206 197
f 197 207 198
f 198 207 208
f 198 208 199
f 199 208 209
f 199 209 200
f 200 209 210
f 200 210 201
f 201 210 211
f 201 211 202
f 202 211 212
f 202 212 203
f 203 212 213
f 203 213 204
f 204 213 214
f 204 214 205
f 205 214 215
f 205 215 206
f 206 215 216
f 206 216 197
f 197 216 207
f 207 217 208
f 208 217 218
f 208 218 209
f 209 218 219
f 209 219 210
f 210 219 220
f 210 220 211
f 211 220 221
f 211 221 212
f 212 221 222
f 212 222 213
f 213 222 223
f 213 223 214
f 214 223 224
f 214 224 215
f 215 224 225
f 215 225 216
f 216 225 226
f 216 226 207
f 207 226 217
f 217 227 218
f 218 227 228
f 218 228 219
f 219 228 229
f 219 229 220
f 220 229 230
f 220 230 221
f 221 230 231
f 221 231 222
f 222 231 232
f 222 232 223
f 223 232 233
f 223 233 224
f 224 233 234
f 224 234 225
f 225 234 235
f 225 235 226
f 226 235 236
f 226 236 217
f 217 236 227
f 227 237 228
f 228 237 238
f 228 238 229
f 229 238 239
f 229 239 230
f 230 239 240
f 230 240 231
f 231 240 241
f 231 241 232
f 232 241 242
f 232 242 233
f 233 242 243
f 233 243 234
f 234 243 244
f 234 244 235
f 235 244 245
f 235 245 236
f 236 245 246
f 236 246 227
f 227 246 237
f 237 247 238
f 238 247 248
f 238 248 239
f 239 248 249
f 239 249 240
f 240 249 250
f 240 250 241
f 241 250 251
f 241 251 242
f 242 251 252
f 242 252 243
f 243 252 253
f 243 253 244
f 244 253 254
f 244 254 245
f 245 254 255
f 245 255 246
f 246 255 256
f 246 256 237
f 237 256 247
f 247 257 248
f 248 257 258
f 248 258 249
f 249 258 259
f 249 259 250
f 250 259 260
f 250 260 251
f 251 260 261
f 251 261 252
f 252 261 262
f 252 262 253
f 253 262 263
f 253 263 254
f 254 263 264
f 254 264 255
f 255 264 265
f 255 265 256
f 256 265 266
f 256 266 247
f 247 266 257
f 257 267 258
f 258 267 268
f 258 268 259
f 259 268 269
f 259 269 260
f 260 269 270
f 260 270 261
f 261 270 271
f 261 271 262
f 262 271 272
f 262 272 263
f 263 272 273
f 263 273 264
f 264 273 274
f 264 274 265
f 265 274 275
f 265 275 266
f 266 275 276
f 266 276 257
f 257 276 267
f 267 277 268
f 268 277 278
f 268 278 269
f 269 278 279
f 269 279 270
f 270 279 280
f 270 280 271
f 271 280 281
f 271 281 272
f 272 281 282
f 272 282 273
f 273 282 283
f 273 283 274
f 274 283 284
f 274 284 275
f 275 284 285
f 275 285 276
f 276 285 286
f 276 286 267
f 267 286 277
f 277 287 278
f 278 287 288
f 278 288 279
f 279 288 289
f 279 289 280
f 280 289 290
f 280 290 281
f 281 290 291
f 281 291 282
f 282 291 292
f 282 292 283
f 283 292 293
f 283 293 284
f 284 293 294
f 284 294 285
f 285 294 295
f 285 295 286
f 286 295 296
f 286 296 277
f 277 296 287
f 287 297 288
f 288 297 298
f 288 298 289
f 289 298 299
f 289 299 290
f 290 299 300
f 290 300 291
f 291 300 301
f 291 301 292
f 292 301 302
f 292 302 293
f 293 302 303
f 293 303 294
f 294 303 304
f 294 304 295
f 295 304 305
f 295 305 296
f 296 305 306
f 296 306 287
f 287 306 297
f 297 67 298
f 298 67 68
f 298 68 299
f 299 68 69
f 299 69 300
f 300 69 70
f 300 70 301
f 301 70 71
f 301 71 302
f 302 71 72
f 302 72 303
f 303 72 73
f 303 73 304
f 304 73 74
f 304 74 305
f 305 74 75
f 305 75 306
f 306 75 76
f 306 76 297
f 297 76 67

