# https://github.com/mikedh/trimesh

o Shard_00
v 0.08000000 0.00750000 -0.03250000
v 0.08000000 0.00750000 0.03250000
v 0.08000000 0.03250000 -0.03250000
v 0.08000000 0.03250000 0.03250000
v 0.16000000 0.00750000 -0.03250000
v 0.16000000 0.00750000 0.03250000
v 0.16000000 0.03250000 -0.03250000
v 0.16000000 0.03250000 0.03250000
f 2 4 1
f 5 2 1
f 1 4 3
f 3 5 1
f 2 8 4
f 6 2 5
f 6 8 2
f 4 8 3
f 7 5 3
f 3 8 7
f 7 6 5
f 8 6 7

o Shard_01
v 0.08007927 0.00291794 0.03580404
v 0.08677553 -0.01289075 0.11394011
v 0.07928405 0.02739572 0.04082460
v 0.08598031 0.01158702 0.11896066
v 0.17768560 0.00760991 0.02838847
v 0.18438186 -0.00819878 0.10652453
v 0.17689037 0.03208769 0.03340902
v 0.18358664 0.01627900 0.11154509
f 10 12 9
f 13 10 9
f 9 12 11
f 11 13 9
f 10 16 12
f 14 10 13
f 14 16 10
f 12 16 11
f 15 13 11
f 11 16 15
f 15 14 13
f 16 14 15

o Shard_02
v 0.03608643 -0.03573887 0.10615286
v 0.05236998 -0.07207427 0.19240589
v 0.03493603 -0.01280259 0.11603230
v 0.05121958 -0.04913798 0.20228533
v 0.15024496 -0.02303513 0.08995272
v 0.16652852 -0.05937053 0.17620575
v 0.14909456 -0.00009885 0.09983216
v 0.16537811 -0.03643424 0.18608519
f 18 20 17
f 21 18 17
f 17 20 19
f 19 21 17
f 18 24 20
f 22 18 21
f 22 24 18
f 20 24 19
f 23 21 19
f 19 24 23
f 23 22 21
f 24 22 23

o Shard_03
v -0.05911369 -0.05624420 0.08894649
v -0.04228649 -0.09171444 0.14075100
v -0.06016210 -0.03579436 0.10328892
v -0.04333491 -0.07126461 0.15509343
v 0.07019614 -0.03186398 0.06363693
v 0.08702334 -0.06733422 0.11544144
v 0.06914772 -0.01141415 0.07797935
v 0.08597492 -0.04688439 0.12978387
f 26 28 25
f 29 26 25
f 25 28 27
f 27 29 25
f 26 32 28
f 30 26 29
f 30 32 26
f 28 32 27
f 31 29 27
f 27 32 31
f 31 30 29
f 32 30 31

o Shard_04
v -0.10493472 -0.08087055 0.08363159
v -0.07758201 -0.13522217 0.13557128
v -0.10542891 -0.06373228 0.10182596
v -0.07807620 -0.11808389 0.15376565
v -0.02977270 -0.05993722 0.06595485
v -0.00242000 -0.11428884 0.11789454
v -0.03026689 -0.04279894 0.08414922
v -0.00291418 -0.09715056 0.13608891
f 34 36 33
f 37 34 33
f 33 36 35
f 35 37 33
f 34 40 36
f 38 34 37
f 38 40 34
f 36 40 35
f 39 37 35
f 35 40 39
f 39 38 37
f 40 38 39

o Shard_05
v -0.22170874 0.00750000 0.00321186
v -0.22170874 0.00750000 0.09821186
v -0.22170874 0.03250000 0.00321186
v -0.22170874 0.03250000 0.09821186
v -0.12370874 0.00750000 0.00321186
v -0.12370874 0.00750000 0.09821186
v -0.12370874 0.03250000 0.00321186
v -0.12370874 0.03250000 0.09821186
f 42 44 41
f 45 42 41
f 41 44 43
f 43 45 41
f 42 48 44
f 46 42 45
f 46 48 42
f 44 48 43
f 47 45 43
f 43 48 47
f 47 46 45
f 48 46 47

o Shard_06
v -0.17823240 0.01215692 -0.05015554
v -0.17279168 -0.00068764 0.01333002
v -0.17902762 0.03663470 -0.04513498
v -0.17358691 0.02379013 0.01835058
v -0.06269838 0.01771068 -0.05893315
v -0.05725767 0.00486612 0.00455240
v -0.06349360 0.04218846 -0.05391260
v -0.05805289 0.02934390 0.00957296
f 50 52 49
f 53 50 49
f 49 52 51
f 51 53 49
f 50 56 52
f 54 50 53
f 54 56 50
f 52 56 51
f 55 53 51
f 51 56 55
f 55 54 53
f 56 54 55

o Shard_07
v -0.18923848 0.04744356 -0.11320270
v -0.17552601 0.01684533 -0.04056858
v -0.19038888 0.07037984 -0.10332326
v -0.17667642 0.03978161 -0.03068914
v -0.05736569 0.06211857 -0.13191666
v -0.04365323 0.03152034 -0.05928253
v -0.05851609 0.08505485 -0.12203722
v -0.04480363 0.05445662 -0.04940309
f 58 60 57
f 61 58 57
f 57 60 59
f 59 61 57
f 58 64 60
f 62 58 61
f 62 64 58
f 60 64 59
f 63 61 59
f 59 64 63
f 63 62 61
f 64 62 63

o Shard_08
v -0.12205540 0.11734258 -0.16315936
v -0.09746181 0.06550146 -0.08744507
v -0.12310382 0.13779242 -0.14881693
v -0.09851023 0.08595129 -0.07310265
v -0.04485551 0.13189794 -0.17826955
v -0.02026192 0.08005681 -0.10255526
v -0.04590393 0.15234777 -0.16392712
v -0.02131033 0.10050664 -0.08821283
f 66 68 65
f 69 66 65
f 65 68 67
f 67 69 65
f 66 72 68
f 70 66 69
f 70 72 66
f 68 72 67
f 71 69 67
f 67 72 71
f 71 70 69
f 72 70 71

o Shard_09
v -0.04778323 0.10160414 -0.08669896
v -0.02555916 0.05744346 -0.04449796
v -0.04827742 0.11874242 -0.06850458
v -0.02605334 0.07458173 -0.02630359
v 0.04429024 0.12724747 -0.10835297
v 0.06651431 0.08308679 -0.06615197
v 0.04379605 0.14438575 -0.09015859
v 0.06602013 0.10022506 -0.04795759
f 74 76 73
f 77 74 73
f 73 76 75
f 75 77 73
f 74 80 76
f 78 74 77
f 78 80 74
f 76 80 75
f 79 77 75
f 75 80 79
f 79 78 77
f 80 78 79

o Shard_10
v 0.06818803 0.00750000 -0.12109612
v 0.06818803 0.00750000 -0.04109612
v 0.06818803 0.03250000 -0.12109612
v 0.06818803 0.03250000 -0.04109612
v 0.18418803 0.00750000 -0.12109612
v 0.18418803 0.00750000 -0.04109612
v 0.18418803 0.03250000 -0.12109612
v 0.18418803 0.03250000 -0.04109612
f 82 84 81
f 85 82 81
f 81 84 83
f 83 85 81
f 82 88 84
f 86 82 85
f 86 88 82
f 84 88 83
f 87 85 83
f 83 88 87
f 87 86 85
f 88 86 87

