# https://github.com/mikedh/trimesh

o RackBody
v -0.82500000 0.00000000 -0.34000000
v -0.82500000 0.00000000 0.34000000
v -0.82500000 2.65000000 -0.34000000
v -0.82500000 2.65000000 0.34000000
v 0.82500000 0.00000000 -0.34000000
v 0.82500000 0.00000000 0.34000000
v 0.82500000 2.65000000 -0.34000000
v 0.82500000 2.65000000 0.34000000
f 2 4 1
f 5 2 1
f 1 4 3
f 3 5 1
f 2 8 4
f 6 2 5
f 6 8 2
f 4 8 3
f 7 5 3
f 3 8 7
f 7 6 5
f 8 6 7

o Module_0
v -0.73500000 0.15500000 -0.39000000
v -0.73500000 0.15500000 -0.34000000
v -0.73500000 0.60500000 -0.39000000
v -0.73500000 0.60500000 -0.34000000
v 0.73500000 0.15500000 -0.39000000
v 0.73500000 0.15500000 -0.34000000
v 0.73500000 0.60500000 -0.39000000
v 0.73500000 0.60500000 -0.34000000
f 10 12 9
f 13 10 9
f 9 12 11
f 11 13 9
f 10 16 12
f 14 10 13
f 14 16 10
f 12 16 11
f 15 13 11
f 11 16 15
f 15 14 13
f 16 14 15

o KnobA_0
v -0.48000000 0.38000000 -0.43750000
v -0.42500000 0.38000000 -0.43750000
v -0.42500000 0.38000000 -0.38250000
v -0.48000000 0.38000000 -0.38250000
v -0.42918663 0.40104759 -0.43750000
v -0.42918663 0.40104759 -0.38250000
v -0.44110913 0.41889087 -0.43750000
v -0.44110913 0.41889087 -0.38250000
v -0.45895241 0.43081337 -0.43750000
v -0.45895241 0.43081337 -0.38250000
v -0.48000000 0.43500000 -0.43750000
v -0.48000000 0.43500000 -0.38250000
v -0.50104759 0.43081337 -0.43750000
v -0.50104759 0.43081337 -0.38250000
v -0.51889087 0.41889087 -0.43750000
v -0.51889087 0.41889087 -0.38250000
v -0.53081337 0.40104759 -0.43750000
v -0.53081337 0.40104759 -0.38250000
v -0.53500000 0.38000000 -0.43750000
v -0.53500000 0.38000000 -0.38250000
v -0.53081337 0.35895241 -0.43750000
v -0.53081337 0.35895241 -0.38250000
v -0.51889087 0.34110913 -0.43750000
v -0.51889087 0.34110913 -0.38250000
v -0.50104759 0.32918663 -0.43750000
v -0.50104759 0.32918663 -0.38250000
v -0.48000000 0.32500000 -0.43750000
v -0.48000000 0.32500000 -0.38250000
v -0.45895241 0.32918663 -0.43750000
v -0.45895241 0.32918663 -0.38250000
v -0.44110913 0.34110913 -0.43750000
v -0.44110913 0.34110913 -0.38250000
v -0.42918663 0.35895241 -0.43750000
v -0.42918663 0.35895241 -0.38250000
f 18 17 21
f 18 21 19
f 19 21 22
f 19 22 20
f 21 17 23
f 21 23 22
f 22 23 24
f 22 24 20
f 23 17 25
f 23 25 24
f 24 25 26
f 24 26 20
f 25 17 27
f 25 27 26
f 26 27 28
f 26 28 20
f 27 17 29
f 27 29 28
f 28 29 30
f 28 30 20
f 29 17 31
f 29 31 30
f 30 31 32
f 30 32 20
f 31 17 33
f 31 33 32
f 32 33 34
f 32 34 20
f 33 17 35
f 33 35 34
f 34 35 36
f 34 36 20
f 35 17 37
f 35 37 36
f 36 37 38
f 36 38 20
f 37 17 39
f 37 39 38
f 38 39 40
f 38 40 20
f 39 17 41
f 39 41 40
f 40 41 42
f 40 42 20
f 41 17 43
f 41 43 42
f 42 43 44
f 42 44 20
f 43 17 45
f 43 45 44
f 44 45 46
f 44 46 20
f 45 17 47
f 45 47 46
f 46 47 48
f 46 48 20
f 47 17 49
f 47 49 48
f 48 49 50
f 48 50 20
f 49 17 18
f 49 18 50
f 50 18 19
f 50 19 20

o KnobB_0
v -0.29000000 0.38000000 -0.43750000
v -0.23500000 0.38000000 -0.43750000
v -0.23500000 0.38000000 -0.38250000
v -0.29000000 0.38000000 -0.38250000
v -0.23918663 0.40104759 -0.43750000
v -0.23918663 0.40104759 -0.38250000
v -0.25110913 0.41889087 -0.43750000
v -0.25110913 0.41889087 -0.38250000
v -0.26895241 0.43081337 -0.43750000
v -0.26895241 0.43081337 -0.38250000
v -0.29000000 0.43500000 -0.43750000
v -0.29000000 0.43500000 -0.38250000
v -0.31104759 0.43081337 -0.43750000
v -0.31104759 0.43081337 -0.38250000
v -0.32889087 0.41889087 -0.43750000
v -0.32889087 0.41889087 -0.38250000
v -0.34081337 0.40104759 -0.43750000
v -0.34081337 0.40104759 -0.38250000
v -0.34500000 0.38000000 -0.43750000
v -0.34500000 0.38000000 -0.38250000
v -0.34081337 0.35895241 -0.43750000
v -0.34081337 0.35895241 -0.38250000
v -0.32889087 0.34110913 -0.43750000
v -0.32889087 0.34110913 -0.38250000
v -0.31104759 0.32918663 -0.43750000
v -0.31104759 0.32918663 -0.38250000
v -0.29000000 0.32500000 -0.43750000
v -0.29000000 0.32500000 -0.38250000
v -0.26895241 0.32918663 -0.43750000
v -0.26895241 0.32918663 -0.38250000
v -0.25110913 0.34110913 -0.43750000
v -0.25110913 0.34110913 -0.38250000
v -0.23918663 0.35895241 -0.43750000
v -0.23918663 0.35895241 -0.38250000
f 52 51 55
f 52 55 53
f 53 55 56
f 53 56 54
f 55 51 57
f 55 57 56
f 56 57 58
f 56 58 54
f 57 51 59
f 57 59 58
f 58 59 60
f 58 60 54
f 59 51 61
f 59 61 60
f 60 61 62
f 60 62 54
f 61 51 63
f 61 63 62
f 62 63 64
f 62 64 54
f 63 51 65
f 63 65 64
f 64 65 66
f 64 66 54
f 65 51 67
f 65 67 66
f 66 67 68
f 66 68 54
f 67 51 69
f 67 69 68
f 68 69 70
f 68 70 54
f 69 51 71
f 69 71 70
f 70 71 72
f 70 72 54
f 71 51 73
f 71 73 72
f 72 73 74
f 72 74 54
f 73 51 75
f 73 75 74
f 74 75 76
f 74 76 54
f 75 51 77
f 75 77 76
f 76 77 78
f 76 78 54
f 77 51 79
f 77 79 78
f 78 79 80
f 78 80 54
f 79 51 81
f 79 81 80
f 80 81 82
f 80 82 54
f 81 51 83
f 81 83 82
f 82 83 84
f 82 84 54
f 83 51 52
f 83 52 84
f 84 52 53
f 84 53 54

o Meter_0
v 0.06000000 0.36000000 -0.40600000
v 0.06000000 0.36000000 -0.38800000
v 0.06000000 0.52000000 -0.40600000
v 0.06000000 0.52000000 -0.38800000
v 0.48000000 0.36000000 -0.40600000
v 0.48000000 0.36000000 -0.38800000
v 0.48000000 0.52000000 -0.40600000
v 0.48000000 0.52000000 -0.38800000
f 86 88 85
f 89 86 85
f 85 88 87
f 87 89 85
f 86 92 88
f 90 86 89
f 90 92 86
f 88 92 87
f 91 89 87
f 87 92 91
f 91 90 89
f 92 90 91

o LED_0
v 0.58500000 0.24500000 -0.40700000
v 0.58500000 0.24500000 -0.38900000
v 0.58500000 0.29500000 -0.40700000
v 0.58500000 0.29500000 -0.38900000
v 0.63500000 0.24500000 -0.40700000
v 0.63500000 0.24500000 -0.38900000
v 0.63500000 0.29500000 -0.40700000
v 0.63500000 0.29500000 -0.38900000
f 94 96 93
f 97 94 93
f 93 96 95
f 95 97 93
f 94 100 96
f 98 94 97
f 98 100 94
f 96 100 95
f 99 97 95
f 95 100 99
f 99 98 97
f 100 98 99

o Module_1
v -0.73500000 0.71500000 -0.39000000
v -0.73500000 0.71500000 -0.34000000
v -0.73500000 1.16500000 -0.39000000
v -0.73500000 1.16500000 -0.34000000
v 0.73500000 0.71500000 -0.39000000
v 0.73500000 0.71500000 -0.34000000
v 0.73500000 1.16500000 -0.39000000
v 0.73500000 1.16500000 -0.34000000
f 102 104 101
f 105 102 101
f 101 104 103
f 103 105 101
f 102 108 104
f 106 102 105
f 106 108 102
f 104 108 103
f 107 105 103
f 103 108 107
f 107 106 105
f 108 106 107

o KnobA_1
v -0.48000000 0.94000000 -0.43750000
v -0.42500000 0.94000000 -0.43750000
v -0.42500000 0.94000000 -0.38250000
v -0.48000000 0.94000000 -0.38250000
v -0.42918663 0.96104759 -0.43750000
v -0.42918663 0.96104759 -0.38250000
v -0.44110913 0.97889087 -0.43750000
v -0.44110913 0.97889087 -0.38250000
v -0.45895241 0.99081337 -0.43750000
v -0.45895241 0.99081337 -0.38250000
v -0.48000000 0.99500000 -0.43750000
v -0.48000000 0.99500000 -0.38250000
v -0.50104759 0.99081337 -0.43750000
v -0.50104759 0.99081337 -0.38250000
v -0.51889087 0.97889087 -0.43750000
v -0.51889087 0.97889087 -0.38250000
v -0.53081337 0.96104759 -0.43750000
v -0.53081337 0.96104759 -0.38250000
v -0.53500000 0.94000000 -0.43750000
v -0.53500000 0.94000000 -0.38250000
v -0.53081337 0.91895241 -0.43750000
v -0.53081337 0.91895241 -0.38250000
v -0.51889087 0.90110913 -0.43750000
v -0.51889087 0.90110913 -0.38250000
v -0.50104759 0.88918663 -0.43750000
v -0.50104759 0.88918663 -0.38250000
v -0.48000000 0.88500000 -0.43750000
v -0.48000000 0.88500000 -0.38250000
v -0.45895241 0.88918663 -0.43750000
v -0.45895241 0.88918663 -0.38250000
v -0.44110913 0.90110913 -0.43750000
v -0.44110913 0.90110913 -0.38250000
v -0.42918663 0.91895241 -0.43750000
v -0.42918663 0.91895241 -0.38250000
f 110 109 113
f 110 113 111
f 111 113 114
f 111 114 112
f 113 109 115
f 113 115 114
f 114 115 116
f 114 116 112
f 115 109 117
f 115 117 116
f 116 117 118
f 116 118 112
f 117 109 119
f 117 119 118
f 118 119 120
f 118 120 112
f 119 109 121
f 119 121 120
f 120 121 122
f 120 122 112
f 121 109 123
f 121 123 122
f 122 123 124
f 122 124 112
f 123 109 125
f 123 125 124
f 124 125 126
f 124 126 112
f 125 109 127
f 125 127 126
f 126 127 128
f 126 128 112
f 127 109 129
f 127 129 128
f 128 129 130
f 128 130 112
f 129 109 131
f 129 131 130
f 130 131 132
f 130 132 112
f 131 109 133
f 131 133 132
f 132 133 134
f 132 134 112
f 133 109 135
f 133 135 134
f 134 135 136
f 134 136 112
f 135 109 137
f 135 137 136
f 136 137 138
f 136 138 112
f 137 109 139
f 137 139 138
f 138 139 140
f 138 140 112
f 139 109 141
f 139 141 140
f 140 141 142
f 140 142 112
f 141 109 110
f 141 110 142
f 142 110 111
f 142 111 112

o KnobB_1
v -0.29000000 0.94000000 -0.43750000
v -0.23500000 0.94000000 -0.43750000
v -0.23500000 0.94000000 -0.38250000
v -0.29000000 0.94000000 -0.38250000
v -0.23918663 0.96104759 -0.43750000
v -0.23918663 0.96104759 -0.38250000
v -0.25110913 0.97889087 -0.43750000
v -0.25110913 0.97889087 -0.38250000
v -0.26895241 0.99081337 -0.43750000
v -0.26895241 0.99081337 -0.38250000
v -0.29000000 0.99500000 -0.43750000
v -0.29000000 0.99500000 -0.38250000
v -0.31104759 0.99081337 -0.43750000
v -0.31104759 0.99081337 -0.38250000
v -0.32889087 0.97889087 -0.43750000
v -0.32889087 0.97889087 -0.38250000
v -0.34081337 0.96104759 -0.43750000
v -0.34081337 0.96104759 -0.38250000
v -0.34500000 0.94000000 -0.43750000
v -0.34500000 0.94000000 -0.38250000
v -0.34081337 0.91895241 -0.43750000
v -0.34081337 0.91895241 -0.38250000
v -0.32889087 0.90110913 -0.43750000
v -0.32889087 0.90110913 -0.38250000
v -0.31104759 0.88918663 -0.43750000
v -0.31104759 0.88918663 -0.38250000
v -0.29000000 0.88500000 -0.43750000
v -0.29000000 0.88500000 -0.38250000
v -0.26895241 0.88918663 -0.43750000
v -0.26895241 0.88918663 -0.38250000
v -0.25110913 0.90110913 -0.43750000
v -0.25110913 0.90110913 -0.38250000
v -0.23918663 0.91895241 -0.43750000
v -0.23918663 0.91895241 -0.38250000
f 144 143 147
f 144 147 145
f 145 147 148
f 145 148 146
f 147 143 149
f 147 149 148
f 148 149 150
f 148 150 146
f 149 143 151
f 149 151 150
f 150 151 152
f 150 152 146
f 151 143 153
f 151 153 152
f 152 153 154
f 152 154 146
f 153 143 155
f 153 155 154
f 154 155 156
f 154 156 146
f 155 143 157
f 155 157 156
f 156 157 158
f 156 158 146
f 157 143 159
f 157 159 158
f 158 159 160
f 158 160 146
f 159 143 161
f 159 161 160
f 160 161 162
f 160 162 146
f 161 143 163
f 161 163 162
f 162 163 164
f 162 164 146
f 163 143 165
f 163 165 164
f 164 165 166
f 164 166 146
f 165 143 167
f 165 167 166
f 166 167 168
f 166 168 146
f 167 143 169
f 167 169 168
f 168 169 170
f 168 170 146
f 169 143 171
f 169 171 170
f 170 171 172
f 170 172 146
f 171 143 173
f 171 173 172
f 172 173 174
f 172 174 146
f 173 143 175
f 173 175 174
f 174 175 176
f 174 176 146
f 175 143 144
f 175 144 176
f 176 144 145
f 176 145 146

o Meter_1
v 0.06000000 0.92000000 -0.40600000
v 0.06000000 0.92000000 -0.38800000
v 0.06000000 1.08000000 -0.40600000
v 0.06000000 1.08000000 -0.38800000
v 0.48000000 0.92000000 -0.40600000
v 0.48000000 0.92000000 -0.38800000
v 0.48000000 1.08000000 -0.40600000
v 0.48000000 1.08000000 -0.38800000
f 178 180 177
f 181 178 177
f 177 180 179
f 179 181 177
f 178 184 180
f 182 178 181
f 182 184 178
f 180 184 179
f 183 181 179
f 179 184 183
f 183 182 181
f 184 182 183

o LED_1
v 0.58500000 0.80500000 -0.40700000
v 0.58500000 0.80500000 -0.38900000
v 0.58500000 0.85500000 -0.40700000
v 0.58500000 0.85500000 -0.38900000
v 0.63500000 0.80500000 -0.40700000
v 0.63500000 0.80500000 -0.38900000
v 0.63500000 0.85500000 -0.40700000
v 0.63500000 0.85500000 -0.38900000
f 186 188 185
f 189 186 185
f 185 188 187
f 187 189 185
f 186 192 188
f 190 186 189
f 190 192 186
f 188 192 187
f 191 189 187
f 187 192 191
f 191 190 189
f 192 190 191

o Module_2
v -0.73500000 1.27500000 -0.39000000
v -0.73500000 1.27500000 -0.34000000
v -0.73500000 1.72500000 -0.39000000
v -0.73500000 1.72500000 -0.34000000
v 0.73500000 1.27500000 -0.39000000
v 0.73500000 1.27500000 -0.34000000
v 0.73500000 1.72500000 -0.39000000
v 0.73500000 1.72500000 -0.34000000
f 194 196 193
f 197 194 193
f 193 196 195
f 195 197 193
f 194 200 196
f 198 194 197
f 198 200 194
f 196 200 195
f 199 197 195
f 195 200 199
f 199 198 197
f 200 198 199

o KnobA_2
v -0.48000000 1.50000000 -0.43750000
v -0.42500000 1.50000000 -0.43750000
v -0.42500000 1.50000000 -0.38250000
v -0.48000000 1.50000000 -0.38250000
v -0.42918663 1.52104759 -0.43750000
v -0.42918663 1.52104759 -0.38250000
v -0.44110913 1.53889087 -0.43750000
v -0.44110913 1.53889087 -0.38250000
v -0.45895241 1.55081337 -0.43750000
v -0.45895241 1.55081337 -0.38250000
v -0.48000000 1.55500000 -0.43750000
v -0.48000000 1.55500000 -0.38250000
v -0.50104759 1.55081337 -0.43750000
v -0.50104759 1.55081337 -0.38250000
v -0.51889087 1.53889087 -0.43750000
v -0.51889087 1.53889087 -0.38250000
v -0.53081337 1.52104759 -0.43750000
v -0.53081337 1.52104759 -0.38250000
v -0.53500000 1.50000000 -0.43750000
v -0.53500000 1.50000000 -0.38250000
v -0.53081337 1.47895241 -0.43750000
v -0.53081337 1.47895241 -0.38250000
v -0.51889087 1.46110913 -0.43750000
v -0.51889087 1.46110913 -0.38250000
v -0.50104759 1.44918663 -0.43750000
v -0.50104759 1.44918663 -0.38250000
v -0.48000000 1.44500000 -0.43750000
v -0.48000000 1.44500000 -0.38250000
v -0.45895241 1.44918663 -0.43750000
v -0.45895241 1.44918663 -0.38250000
v -0.44110913 1.46110913 -0.43750000
v -0.44110913 1.46110913 -0.38250000
v -0.42918663 1.47895241 -0.43750000
v -0.42918663 1.47895241 -0.38250000
f 202 201 205
f 202 205 203
f 203 205 206
f 203 206 204
f 205 201 207
f 205 207 206
f 206 207 208
f 206 208 204
f 207 201 209
f 207 209 208
f 208 209 210
f 208 210 204
f 209 201 211
f 209 211 210
f 210 211 212
f 210 212 204
f 211 201 213
f 211 213 212
f 212 213 214
f 212 214 204
f 213 201 215
f 213 215 214
f 214 215 216
f 214 216 204
f 215 201 217
f 215 217 216
f 216 217 218
f 216 218 204
f 217 201 219
f 217 219 218
f 218 219 220
f 218 220 204
f 219 201 221
f 219 221 220
f 220 221 222
f 220 222 204
f 221 201 223
f 221 223 222
f 222 223 224
f 222 224 204
f 223 201 225
f 223 225 224
f 224 225 226
f 224 226 204
f 225 201 227
f 225 227 226
f 226 227 228
f 226 228 204
f 227 201 229
f 227 229 228
f 228 229 230
f 228 230 204
f 229 201 231
f 229 231 230
f 230 231 232
f 230 232 204
f 231 201 233
f 231 233 232
f 232 233 234
f 232 234 204
f 233 201 202
f 233 202 234
f 234 202 203
f 234 203 204

o KnobB_2
v -0.29000000 1.50000000 -0.43750000
v -0.23500000 1.50000000 -0.43750000
v -0.23500000 1.50000000 -0.38250000
v -0.29000000 1.50000000 -0.38250000
v -0.23918663 1.52104759 -0.43750000
v -0.23918663 1.52104759 -0.38250000
v -0.25110913 1.53889087 -0.43750000
v -0.25110913 1.53889087 -0.38250000
v -0.26895241 1.55081337 -0.43750000
v -0.26895241 1.55081337 -0.38250000
v -0.29000000 1.55500000 -0.43750000
v -0.29000000 1.55500000 -0.38250000
v -0.31104759 1.55081337 -0.43750000
v -0.31104759 1.55081337 -0.38250000
v -0.32889087 1.53889087 -0.43750000
v -0.32889087 1.53889087 -0.38250000
v -0.34081337 1.52104759 -0.43750000
v -0.34081337 1.52104759 -0.38250000
v -0.34500000 1.50000000 -0.43750000
v -0.34500000 1.50000000 -0.38250000
v -0.34081337 1.47895241 -0.43750000
v -0.34081337 1.47895241 -0.38250000
v -0.32889087 1.46110913 -0.43750000
v -0.32889087 1.46110913 -0.38250000
v -0.31104759 1.44918663 -0.43750000
v -0.31104759 1.44918663 -0.38250000
v -0.29000000 1.44500000 -0.43750000
v -0.29000000 1.44500000 -0.38250000
v -0.26895241 1.44918663 -0.43750000
v -0.26895241 1.44918663 -0.38250000
v -0.25110913 1.46110913 -0.43750000
v -0.25110913 1.46110913 -0.38250000
v -0.23918663 1.47895241 -0.43750000
v -0.23918663 1.47895241 -0.38250000
f 236 235 239
f 236 239 237
f 237 239 240
f 237 240 238
f 239 235 241
f 239 241 240
f 240 241 242
f 240 242 238
f 241 235 243
f 241 243 242
f 242 243 244
f 242 244 238
f 243 235 245
f 243 245 244
f 244 245 246
f 244 246 238
f 245 235 247
f 245 247 246
f 246 247 248
f 246 248 238
f 247 235 249
f 247 249 248
f 248 249 250
f 248 250 238
f 249 235 251
f 249 251 250
f 250 251 252
f 250 252 238
f 251 235 253
f 251 253 252
f 252 253 254
f 252 254 238
f 253 235 255
f 253 255 254
f 254 255 256
f 254 256 238
f 255 235 257
f 255 257 256
f 256 257 258
f 256 258 238
f 257 235 259
f 257 259 258
f 258 259 260
f 258 260 238
f 259 235 261
f 259 261 260
f 260 261 262
f 260 262 238
f 261 235 263
f 261 263 262
f 262 263 264
f 262 264 238
f 263 235 265
f 263 265 264
f 264 265 266
f 264 266 238
f 265 235 267
f 265 267 266
f 266 267 268
f 266 268 238
f 267 235 236
f 267 236 268
f 268 236 237
f 268 237 238

o Meter_2
v 0.06000000 1.48000000 -0.40600000
v 0.06000000 1.48000000 -0.38800000
v 0.06000000 1.64000000 -0.40600000
v 0.06000000 1.64000000 -0.38800000
v 0.48000000 1.48000000 -0.40600000
v 0.48000000 1.48000000 -0.38800000
v 0.48000000 1.64000000 -0.40600000
v 0.48000000 1.64000000 -0.38800000
f 270 272 269
f 273 270 269
f 269 272 271
f 271 273 269
f 270 276 272
f 274 270 273
f 274 276 270
f 272 276 271
f 275 273 271
f 271 276 275
f 275 274 273
f 276 274 275

o LED_2
v 0.58500000 1.36500000 -0.40700000
v 0.58500000 1.36500000 -0.38900000
v 0.58500000 1.41500000 -0.40700000
v 0.58500000 1.41500000 -0.38900000
v 0.63500000 1.36500000 -0.40700000
v 0.63500000 1.36500000 -0.38900000
v 0.63500000 1.41500000 -0.40700000
v 0.63500000 1.41500000 -0.38900000
f 278 280 277
f 281 278 277
f 277 280 279
f 279 281 277
f 278 284 280
f 282 278 281
f 282 284 278
f 280 284 279
f 283 281 279
f 279 284 283
f 283 282 281
f 284 282 283

o Module_3
v -0.73500000 1.83500000 -0.39000000
v -0.73500000 1.83500000 -0.34000000
v -0.73500000 2.28500000 -0.39000000
v -0.73500000 2.28500000 -0.34000000
v 0.73500000 1.83500000 -0.39000000
v 0.73500000 1.83500000 -0.34000000
v 0.73500000 2.28500000 -0.39000000
v 0.73500000 2.28500000 -0.34000000
f 286 288 285
f 289 286 285
f 285 288 287
f 287 289 285
f 286 292 288
f 290 286 289
f 290 292 286
f 288 292 287
f 291 289 287
f 287 292 291
f 291 290 289
f 292 290 291

o KnobA_3
v -0.48000000 2.06000000 -0.43750000
v -0.42500000 2.06000000 -0.43750000
v -0.42500000 2.06000000 -0.38250000
v -0.48000000 2.06000000 -0.38250000
v -0.42918663 2.08104759 -0.43750000
v -0.42918663 2.08104759 -0.38250000
v -0.44110913 2.09889087 -0.43750000
v -0.44110913 2.09889087 -0.38250000
v -0.45895241 2.11081337 -0.43750000
v -0.45895241 2.11081337 -0.38250000
v -0.48000000 2.11500000 -0.43750000
v -0.48000000 2.11500000 -0.38250000
v -0.50104759 2.11081337 -0.43750000
v -0.50104759 2.11081337 -0.38250000
v -0.51889087 2.09889087 -0.43750000
v -0.51889087 2.09889087 -0.38250000
v -0.53081337 2.08104759 -0.43750000
v -0.53081337 2.08104759 -0.38250000
v -0.53500000 2.06000000 -0.43750000
v -0.53500000 2.06000000 -0.38250000
v -0.53081337 2.03895241 -0.43750000
v -0.53081337 2.03895241 -0.38250000
v -0.51889087 2.02110913 -0.43750000
v -0.51889087 2.02110913 -0.38250000
v -0.50104759 2.00918663 -0.43750000
v -0.50104759 2.00918663 -0.38250000
v -0.48000000 2.00500000 -0.43750000
v -0.48000000 2.00500000 -0.38250000
v -0.45895241 2.00918663 -0.43750000
v -0.45895241 2.00918663 -0.38250000
v -0.44110913 2.02110913 -0.43750000
v -0.44110913 2.02110913 -0.38250000
v -0.42918663 2.03895241 -0.43750000
v -0.42918663 2.03895241 -0.38250000
f 294 293 297
f 294 297 295
f 295 297 298
f 295 298 296
f 297 293 299
f 297 299 298
f 298 299 300
f 298 300 296
f 299 293 301
f 299 301 300
f 300 301 302
f 300 302 296
f 301 293 303
f 301 303 302
f 302 303 304
f 302 304 296
f 303 293 305
f 303 305 304
f 304 305 306
f 304 306 296
f 305 293 307
f 305 307 306
f 306 307 308
f 306 308 296
f 307 293 309
f 307 309 308
f 308 309 310
f 308 310 296
f 309 293 311
f 309 311 310
f 310 311 312
f 310 312 296
f 311 293 313
f 311 313 312
f 312 313 314
f 312 314 296
f 313 293 315
f 313 315 314
f 314 315 316
f 314 316 296
f 315 293 317
f 315 317 316
f 316 317 318
f 316 318 296
f 317 293 319
f 317 319 318
f 318 319 320
f 318 320 296
f 319 293 321
f 319 321 320
f 320 321 322
f 320 322 296
f 321 293 323
f 321 323 322
f 322 323 324
f 322 324 296
f 323 293 325
f 323 325 324
f 324 325 326
f 324 326 296
f 325 293 294
f 325 294 326
f 326 294 295
f 326 295 296

o KnobB_3
v -0.29000000 2.06000000 -0.43750000
v -0.23500000 2.06000000 -0.43750000
v -0.23500000 2.06000000 -0.38250000
v -0.29000000 2.06000000 -0.38250000
v -0.23918663 2.08104759 -0.43750000
v -0.23918663 2.08104759 -0.38250000
v -0.25110913 2.09889087 -0.43750000
v -0.25110913 2.09889087 -0.38250000
v -0.26895241 2.11081337 -0.43750000
v -0.26895241 2.11081337 -0.38250000
v -0.29000000 2.11500000 -0.43750000
v -0.29000000 2.11500000 -0.38250000
v -0.31104759 2.11081337 -0.43750000
v -0.31104759 2.11081337 -0.38250000
v -0.32889087 2.09889087 -0.43750000
v -0.32889087 2.09889087 -0.38250000
v -0.34081337 2.08104759 -0.43750000
v -0.34081337 2.08104759 -0.38250000
v -0.34500000 2.06000000 -0.43750000
v -0.34500000 2.06000000 -0.38250000
v -0.34081337 2.03895241 -0.43750000
v -0.34081337 2.03895241 -0.38250000
v -0.32889087 2.02110913 -0.43750000
v -0.32889087 2.02110913 -0.38250000
v -0.31104759 2.00918663 -0.43750000
v -0.31104759 2.00918663 -0.38250000
v -0.29000000 2.00500000 -0.43750000
v -0.29000000 2.00500000 -0.38250000
v -0.26895241 2.00918663 -0.43750000
v -0.26895241 2.00918663 -0.38250000
v -0.25110913 2.02110913 -0.43750000
v -0.25110913 2.02110913 -0.38250000
v -0.23918663 2.03895241 -0.43750000
v -0.23918663 2.03895241 -0.38250000
f 328 327 331
f 328 331 329
f 329 331 332
f 329 332 330
f 331 327 333
f 331 333 332
f 332 333 334
f 332 334 330
f 333 327 335
f 333 335 334
f 334 335 336
f 334 336 330
f 335 327 337
f 335 337 336
f 336 337 338
f 336 338 330
f 337 327 339
f 337 339 338
f 338 339 340
f 338 340 330
f 339 327 341
f 339 341 340
f 340 341 342
f 340 342 330
f 341 327 343
f 341 343 342
f 342 343 344
f 342 344 330
f 343 327 345
f 343 345 344
f 344 345 346
f 344 346 330
f 345 327 347
f 345 347 346
f 346 347 348
f 346 348 330
f 347 327 349
f 347 349 348
f 348 349 350
f 348 350 330
f 349 327 351
f 349 351 350
f 350 351 352
f 350 352 330
f 351 327 353
f 351 353 352
f 352 353 354
f 352 354 330
f 353 327 355
f 353 355 354
f 354 355 356
f 354 356 330
f 355 327 357
f 355 357 356
f 356 357 358
f 356 358 330
f 357 327 359
f 357 359 358
f 358 359 360
f 358 360 330
f 359 327 328
f 359 328 360
f 360 328 329
f 360 329 330

o Meter_3
v 0.06000000 2.04000000 -0.40600000
v 0.06000000 2.04000000 -0.38800000
v 0.06000000 2.20000000 -0.40600000
v 0.06000000 2.20000000 -0.38800000
v 0.48000000 2.04000000 -0.40600000
v 0.48000000 2.04000000 -0.38800000
v 0.48000000 2.20000000 -0.40600000
v 0.48000000 2.20000000 -0.38800000
f 362 364 361
f 365 362 361
f 361 364 363
f 363 365 361
f 362 368 364
f 366 362 365
f 366 368 362
f 364 368 363
f 367 365 363
f 363 368 367
f 367 366 365
f 368 366 367

o LED_3
v 0.58500000 1.92500000 -0.40700000
v 0.58500000 1.92500000 -0.38900000
v 0.58500000 1.97500000 -0.40700000
v 0.58500000 1.97500000 -0.38900000
v 0.63500000 1.92500000 -0.40700000
v 0.63500000 1.92500000 -0.38900000
v 0.63500000 1.97500000 -0.40700000
v 0.63500000 1.97500000 -0.38900000
f 370 372 369
f 373 370 369
f 369 372 371
f 371 373 369
f 370 376 372
f 374 370 373
f 374 376 370
f 372 376 371
f 375 373 371
f 371 376 375
f 375 374 373
f 376 374 375

