# https://github.com/mikedh/trimesh

o DishBowl
v 0.00000000 0.00000000 0.00000000
v 0.30000000 0.00750000 0.00000000
v 0.29743346 0.00750000 0.03915786
v 0.28977775 0.00750000 0.07764571
v 0.27716386 0.00750000 0.11480503
v 0.25980762 0.00750000 0.15000000
v 0.23800600 0.00750000 0.18262843
v 0.21213203 0.00750000 0.21213203
v 0.18262843 0.00750000 0.23800600
v 0.15000000 0.00750000 0.25980762
v 0.11480503 0.00750000 0.27716386
v 0.07764571 0.00750000 0.28977775
v 0.03915786 0.00750000 0.29743346
v 0.00000000 0.00750000 0.30000000
v -0.03915786 0.00750000 0.29743346
v -0.07764571 0.00750000 0.28977775
v -0.11480503 0.00750000 0.27716386
v -0.15000000 0.00750000 0.25980762
v -0.18262843 0.00750000 0.23800600
v -0.21213203 0.00750000 0.21213203
v -0.23800600 0.00750000 0.18262843
v -0.25980762 0.00750000 0.15000000
v -0.27716386 0.00750000 0.11480503
v -0.28977775 0.00750000 0.07764571
v -0.29743346 0.00750000 0.03915786
v -0.30000000 0.00750000 0.00000000
v -0.29743346 0.00750000 -0.03915786
v -0.28977775 0.00750000 -0.07764571
v -0.27716386 0.00750000 -0.11480503
v -0.25980762 0.00750000 -0.15000000
v -0.23800600 0.00750000 -0.18262843
v -0.21213203 0.00750000 -0.21213203
v -0.18262843 0.00750000 -0.23800600
v -0.15000000 0.00750000 -0.25980762
v -0.11480503 0.00750000 -0.27716386
v -0.07764571 0.00750000 -0.28977775
v -0.03915786 0.00750000 -0.29743346
v -0.00000000 0.00750000 -0.30000000
v 0.03915786 0.00750000 -0.29743346
v 0.07764571 0.00750000 -0.28977775
v 0.11480503 0.00750000 -0.27716386
v 0.15000000 0.00750000 -0.25980762
v 0.18262843 0.00750000 -0.23800600
v 0.21213203 0.00750000 -0.21213203
v 0.23800600 0.00750000 -0.18262843
v 0.25980762 0.00750000 -0.15000000
v 0.27716386 0.00750000 -0.11480503
v 0.28977775 0.00750000 -0.07764571
v 0.29743346 0.00750000 -0.03915786
v 0.60000000 0.03000000 0.00000000
v 0.59486692 0.03000000 0.07831572
v 0.57955550 0.03000000 0.15529143
v 0.55432772 0.03000000 0.22961006
v 0.51961524 0.03000000 0.30000000
v 0.47601200 0.03000000 0.36525686
v 0.42426407 0.03000000 0.42426407
v 0.36525686 0.03000000 0.47601200
v 0.30000000 0.03000000 0.51961524
v 0.22961006 0.03000000 0.55432772
v 0.15529143 0.03000000 0.57955550
v 0.07831572 0.03000000 0.59486692
v 0.00000000 0.03000000 0.60000000
v -0.07831572 0.03000000 0.59486692
v -0.15529143 0.03000000 0.57955550
v -0.22961006 0.03000000 0.55432772
v -0.30000000 0.03000000 0.51961524
v -0.36525686 0.03000000 0.47601200
v -0.42426407 0.03000000 0.42426407
v -0.47601200 0.03000000 0.36525686
v -0.51961524 0.03000000 0.30000000
v -0.55432772 0.03000000 0.22961006
v -0.57955550 0.03000000 0.15529143
v -0.59486692 0.03000000 0.07831572
v -0.60000000 0.03000000 0.00000000
v -0.59486692 0.03000000 -0.07831572
v -0.57955550 0.03000000 -0.15529143
v -0.55432772 0.03000000 -0.22961006
v -0.51961524 0.03000000 -0.30000000
v -0.47601200 0.03000000 -0.36525686
v -0.42426407 0.03000000 -0.42426407
v -0.36525686 0.03000000 -0.47601200
v -0.30000000 0.03000000 -0.51961524
v -0.22961006 0.03000000 -0.55432772
v -0.15529143 0.03000000 -0.57955550
v -0.07831572 0.03000000 -0.59486692
v -0.00000000 0.03000000 -0.60000000
v 0.07831572 0.03000000 -0.59486692
v 0.15529143 0.03000000 -0.57955550
v 0.22961006 0.03000000 -0.55432772
v 0.30000000 0.03000000 -0.51961524
v 0.36525686 0.03000000 -0.47601200
v 0.42426407 0.03000000 -0.42426407
v 0.47601200 0.03000000 -0.36525686
v 0.51961524 0.03000000 -0.30000000
v 0.55432772 0.03000000 -0.22961006
v 0.57955550 0.03000000 -0.15529143
v 0.59486692 0.03000000 -0.07831572
v 0.90000000 0.06750000 0.00000000
v 0.89230038 0.06750000 0.11747357
v 0.86933324 0.06750000 0.23293714
v 0.83149158 0.06750000 0.34441509
v 0.77942286 0.06750000 0.45000000
v 0.71401801 0.06750000 0.54788529
v 0.63639610 0.06750000 0.63639610
v 0.54788529 0.06750000 0.71401801
v 0.45000000 0.06750000 0.77942286
v 0.34441509 0.06750000 0.83149158
v 0.23293714 0.06750000 0.86933324
v 0.11747357 0.06750000 0.89230038
v 0.00000000 0.06750000 0.90000000
v -0.11747357 0.06750000 0.89230038
v -0.23293714 0.06750000 0.86933324
v -0.34441509 0.06750000 0.83149158
v -0.45000000 0.06750000 0.77942286
v -0.54788529 0.06750000 0.71401801
v -0.63639610 0.06750000 0.63639610
v -0.71401801 0.06750000 0.54788529
v -0.77942286 0.06750000 0.45000000
v -0.83149158 0.06750000 0.34441509
v -0.86933324 0.06750000 0.23293714
v -0.89230038 0.06750000 0.11747357
v -0.90000000 0.06750000 0.00000000
v -0.89230038 0.06750000 -0.11747357
v -0.86933324 0.06750000 -0.23293714
v -0.83149158 0.06750000 -0.34441509
v -0.77942286 0.06750000 -0.45000000
v -0.71401801 0.06750000 -0.54788529
v -0.63639610 0.06750000 -0.63639610
v -0.54788529 0.06750000 -0.71401801
v -0.45000000 0.06750000 -0.77942286
v -0.34441509 0.06750000 -0.83149158
v -0.23293714 0.06750000 -0.86933324
v -0.11747357 0.06750000 -0.89230038
v -0.00000000 0.06750000 -0.90000000
v 0.11747357 0.06750000 -0.89230038
v 0.23293714 0.06750000 -0.86933324
v 0.34441509 0.06750000 -0.83149158
v 0.45000000 0.06750000 -0.77942286
v 0.54788529 0.06750000 -0.71401801
v 0.63639610 0.06750000 -0.63639610
v 0.71401801 0.06750000 -0.54788529
v 0.77942286 0.06750000 -0.45000000
v 0.83149158 0.06750000 -0.34441509
v 0.86933324 0.06750000 -0.23293714
v 0.89230038 0.06750000 -0.11747357
v 1.20000000 0.12000000 0.00000000
v 1.18973383 0.12000000 0.15663143
v 1.15911099 0.12000000 0.31058285
v 1.10865544 0.12000000 0.45922012
v 1.03923048 0.12000000 0.60000000
v 0.95202401 0.12000000 0.73051371
v 0.84852814 0.12000000 0.84852814
v 0.73051371 0.12000000 0.95202401
v 0.60000000 0.12000000 1.03923048
v 0.45922012 0.12000000 1.10865544
v 0.31058285 0.12000000 1.15911099
v 0.15663143 0.12000000 1.18973383
v 0.00000000 0.12000000 1.20000000
v -0.15663143 0.12000000 1.18973383
v -0.31058285 0.12000000 1.15911099
v -0.45922012 0.12000000 1.10865544
v -0.60000000 0.12000000 1.03923048
v -0.73051371 0.12000000 0.95202401
v -0.84852814 0.12000000 0.84852814
v -0.95202401 0.12000000 0.73051371
v -1.03923048 0.12000000 0.60000000
v -1.10865544 0.12000000 0.45922012
v -1.15911099 0.12000000 0.31058285
v -1.18973383 0.12000000 0.15663143
v -1.20000000 0.12000000 0.00000000
v -1.18973383 0.12000000 -0.15663143
v -1.15911099 0.12000000 -0.31058285
v -1.10865544 0.12000000 -0.45922012
v -1.03923048 0.12000000 -0.60000000
v -0.95202401 0.12000000 -0.73051371
v -0.84852814 0.12000000 -0.84852814
v -0.73051371 0.12000000 -0.95202401
v -0.60000000 0.12000000 -1.03923048
v -0.45922012 0.12000000 -1.10865544
v -0.31058285 0.12000000 -1.15911099
v -0.15663143 0.12000000 -1.18973383
v -0.00000000 0.12000000 -1.20000000
v 0.15663143 0.12000000 -1.18973383
v 0.31058285 0.12000000 -1.15911099
v 0.45922012 0.12000000 -1.10865544
v 0.60000000 0.12000000 -1.03923048
v 0.73051371 0.12000000 -0.95202401
v 0.84852814 0.12000000 -0.84852814
v 0.95202401 0.12000000 -0.73051371
v 1.03923048 0.12000000 -0.60000000
v 1.10865544 0.12000000 -0.45922012
v 1.15911099 0.12000000 -0.31058285
v 1.18973383 0.12000000 -0.15663143
v 1.50000000 0.18750000 0.00000000
v 1.48716729 0.18750000 0.19578929
v 1.44888874 0.18750000 0.38822857
v 1.38581930 0.18750000 0.57402515
v 1.29903811 0.18750000 0.75000000
v 1.19003001 0.18750000 0.91314214
v 1.06066017 0.18750000 1.06066017
v 0.91314214 0.18750000 1.19003001
v 0.75000000 0.18750000 1.29903811
v 0.57402515 0.18750000 1.38581930
v 0.38822857 0.18750000 1.44888874
v 0.19578929 0.18750000 1.48716729
v 0.00000000 0.18750000 1.50000000
v -0.19578929 0.18750000 1.48716729
v -0.38822857 0.18750000 1.44888874
v -0.57402515 0.18750000 1.38581930
v -0.75000000 0.18750000 1.29903811
v -0.91314214 0.18750000 1.19003001
v -1.06066017 0.18750000 1.06066017
v -1.19003001 0.18750000 0.91314214
v -1.29903811 0.18750000 0.75000000
v -1.38581930 0.18750000 0.57402515
v -1.44888874 0.18750000 0.38822857
v -1.48716729 0.18750000 0.19578929
v -1.50000000 0.18750000 0.00000000
v -1.48716729 0.18750000 -0.19578929
v -1.44888874 0.18750000 -0.38822857
v -1.38581930 0.18750000 -0.57402515
v -1.29903811 0.18750000 -0.75000000
v -1.19003001 0.18750000 -0.91314214
v -1.06066017 0.18750000 -1.06066017
v -0.91314214 0.18750000 -1.19003001
v -0.75000000 0.18750000 -1.29903811
v -0.57402515 0.18750000 -1.38581930
v -0.38822857 0.18750000 -1.44888874
v -0.19578929 0.18750000 -1.48716729
v -0.00000000 0.18750000 -1.50000000
v 0.19578929 0.18750000 -1.48716729
v 0.38822857 0.18750000 -1.44888874
v 0.57402515 0.18750000 -1.38581930
v 0.75000000 0.18750000 -1.29903811
v 0.91314214 0.18750000 -1.19003001
v 1.06066017 0.18750000 -1.06066017
v 1.19003001 0.18750000 -0.91314214
v 1.29903811 0.18750000 -0.75000000
v 1.38581930 0.18750000 -0.57402515
v 1.44888874 0.18750000 -0.38822857
v 1.48716729 0.18750000 -0.19578929
v 1.80000000 0.27000000 0.00000000
v 1.78460075 0.27000000 0.23494715
v 1.73866649 0.27000000 0.46587428
v 1.66298316 0.27000000 0.68883018
v 1.55884573 0.27000000 0.90000000
v 1.42803601 0.27000000 1.09577057
v 1.27279221 0.27000000 1.27279221
v 1.09577057 0.27000000 1.42803601
v 0.90000000 0.27000000 1.55884573
v 0.68883018 0.27000000 1.66298316
v 0.46587428 0.27000000 1.73866649
v 0.23494715 0.27000000 1.78460075
v 0.00000000 0.27000000 1.80000000
v -0.23494715 0.27000000 1.78460075
v -0.46587428 0.27000000 1.73866649
v -0.68883018 0.27000000 1.66298316
v -0.90000000 0.27000000 1.55884573
v -1.09577057 0.27000000 1.42803601
v -1.27279221 0.27000000 1.27279221
v -1.42803601 0.27000000 1.09577057
v -1.55884573 0.27000000 0.90000000
v -1.66298316 0.27000000 0.68883018
v -1.73866649 0.27000000 0.46587428
v -1.78460075 0.27000000 0.23494715
v -1.80000000 0.27000000 0.00000000
v -1.78460075 0.27000000 -0.23494715
v -1.73866649 0.27000000 -0.46587428
v -1.66298316 0.27000000 -0.68883018
v -1.55884573 0.27000000 -0.90000000
v -1.42803601 0.27000000 -1.09577057
v -1.27279221 0.27000000 -1.27279221
v -1.09577057 0.27000000 -1.42803601
v -0.90000000 0.27000000 -1.55884573
v -0.68883018 0.27000000 -1.66298316
v -0.46587428 0.27000000 -1.73866649
v -0.23494715 0.27000000 -1.78460075
v -0.00000000 0.27000000 -1.80000000
v 0.23494715 0.27000000 -1.78460075
v 0.46587428 0.27000000 -1.73866649
v 0.68883018 0.27000000 -1.66298316
v 0.90000000 0.27000000 -1.55884573
v 1.09577057 0.27000000 -1.42803601
v 1.27279221 0.27000000 -1.27279221
v 1.42803601 0.27000000 -1.09577057
v 1.55884573 0.27000000 -0.90000000
v 1.66298316 0.27000000 -0.68883018
v 1.73866649 0.27000000 -0.46587428
v 1.78460075 0.27000000 -0.23494715
v 2.10000000 0.36750000 0.00000000
v 2.08203421 0.36750000 0.27410500
v 2.02844424 0.36750000 0.54351999
v 1.94014702 0.36750000 0.80363521
v 1.81865335 0.36750000 1.05000000
v 1.66604201 0.36750000 1.27839900
v 1.48492424 0.36750000 1.48492424
v 1.27839900 0.36750000 1.66604201
v 1.05000000 0.36750000 1.81865335
v 0.80363521 0.36750000 1.94014702
v 0.54351999 0.36750000 2.02844424
v 0.27410500 0.36750000 2.08203421
v 0.00000000 0.36750000 2.10000000
v -0.27410500 0.36750000 2.08203421
v -0.54351999 0.36750000 2.02844424
v -0.80363521 0.36750000 1.94014702
v -1.05000000 0.36750000 1.81865335
v -1.27839900 0.36750000 1.66604201
v -1.48492424 0.36750000 1.48492424
v -1.66604201 0.36750000 1.27839900
v -1.81865335 0.36750000 1.05000000
v -1.94014702 0.36750000 0.80363521
v -2.02844424 0.36750000 0.54351999
v -2.08203421 0.36750000 0.27410500
v -2.10000000 0.36750000 0.00000000
v -2.08203421 0.36750000 -0.27410500
v -2.02844424 0.36750000 -0.54351999
v -1.94014702 0.36750000 -0.80363521
v -1.81865335 0.36750000 -1.05000000
v -1.66604201 0.36750000 -1.27839900
v -1.48492424 0.36750000 -1.48492424
v -1.27839900 0.36750000 -1.66604201
v -1.05000000 0.36750000 -1.81865335
v -0.80363521 0.36750000 -1.94014702
v -0.54351999 0.36750000 -2.02844424
v -0.27410500 0.36750000 -2.08203421
v -0.00000000 0.36750000 -2.10000000
v 0.27410500 0.36750000 -2.08203421
v 0.54351999 0.36750000 -2.02844424
v 0.80363521 0.36750000 -1.94014702
v 1.05000000 0.36750000 -1.81865335
v 1.27839900 0.36750000 -1.66604201
v 1.48492424 0.36750000 -1.48492424
v 1.66604201 0.36750000 -1.27839900
v 1.81865335 0.36750000 -1.05000000
v 1.94014702 0.36750000 -0.80363521
v 2.02844424 0.36750000 -0.54351999
v 2.08203421 0.36750000 -0.27410500
v 2.40000000 0.48000000 0.00000000
v 2.37946767 0.48000000 0.31326286
v 2.31822198 0.48000000 0.62116571
v 2.21731088 0.48000000 0.91844024
v 2.07846097 0.48000000 1.20000000
v 1.90404802 0.48000000 1.46102743
v 1.69705627 0.48000000 1.69705627
v 1.46102743 0.48000000 1.90404802
v 1.20000000 0.48000000 2.07846097
v 0.91844024 0.48000000 2.21731088
v 0.62116571 0.48000000 2.31822198
v 0.31326286 0.48000000 2.37946767
v 0.00000000 0.48000000 2.40000000
v -0.31326286 0.48000000 2.37946767
v -0.62116571 0.48000000 2.31822198
v -0.91844024 0.48000000 2.21731088
v -1.20000000 0.48000000 2.07846097
v -1.46102743 0.48000000 1.90404802
v -1.69705627 0.48000000 1.69705627
v -1.90404802 0.48000000 1.46102743
v -2.07846097 0.48000000 1.20000000
v -2.21731088 0.48000000 0.91844024
v -2.31822198 0.48000000 0.62116571
v -2.37946767 0.48000000 0.31326286
v -2.40000000 0.48000000 0.00000000
v -2.37946767 0.48000000 -0.31326286
v -2.31822198 0.48000000 -0.62116571
v -2.21731088 0.48000000 -0.91844024
v -2.07846097 0.48000000 -1.20000000
v -1.90404802 0.48000000 -1.46102743
v -1.69705627 0.48000000 -1.69705627
v -1.46102743 0.48000000 -1.90404802
v -1.20000000 0.48000000 -2.07846097
v -0.91844024 0.48000000 -2.21731088
v -0.62116571 0.48000000 -2.31822198
v -0.31326286 0.48000000 -2.37946767
v -0.00000000 0.48000000 -2.40000000
v 0.31326286 0.48000000 -2.37946767
v 0.62116571 0.48000000 -2.31822198
v 0.91844024 0.48000000 -2.21731088
v 1.20000000 0.48000000 -2.07846097
v 1.46102743 0.48000000 -1.90404802
v 1.69705627 0.48000000 -1.69705627
v 1.90404802 0.48000000 -1.46102743
v 2.07846097 0.48000000 -1.20000000
v 2.21731088 0.48000000 -0.91844024
v 2.31822198 0.48000000 -0.62116571
v 2.37946767 0.48000000 -0.31326286
v 2.70000000 0.60750000 0.00000000
v 2.67690113 0.60750000 0.35242072
v 2.60799973 0.60750000 0.69881142
v 2.49447474 0.60750000 1.03324527
v 2.33826859 0.60750000 1.35000000
v 2.14205402 0.60750000 1.64365586
v 1.90918831 0.60750000 1.90918831
v 1.64365586 0.60750000 2.14205402
v 1.35000000 0.60750000 2.33826859
v 1.03324527 0.60750000 2.49447474
v 0.69881142 0.60750000 2.60799973
v 0.35242072 0.60750000 2.67690113
v 0.00000000 0.60750000 2.70000000
v -0.35242072 0.60750000 2.67690113
v -0.69881142 0.60750000 2.60799973
v -1.03324527 0.60750000 2.49447474
v -1.35000000 0.60750000 2.33826859
v -1.64365586 0.60750000 2.14205402
v -1.90918831 0.60750000 1.90918831
v -2.14205402 0.60750000 1.64365586
v -2.33826859 0.60750000 1.35000000
v -2.49447474 0.60750000 1.03324527
v -2.60799973 0.60750000 0.69881142
v -2.67690113 0.60750000 0.35242072
v -2.70000000 0.60750000 0.00000000
v -2.67690113 0.60750000 -0.35242072
v -2.60799973 0.60750000 -0.69881142
v -2.49447474 0.60750000 -1.03324527
v -2.33826859 0.60750000 -1.35000000
v -2.14205402 0.60750000 -1.64365586
v -1.90918831 0.60750000 -1.90918831
v -1.64365586 0.60750000 -2.14205402
v -1.35000000 0.60750000 -2.33826859
v -1.03324527 0.60750000 -2.49447474
v -0.69881142 0.60750000 -2.60799973
v -0.35242072 0.60750000 -2.67690113
v -0.00000000 0.60750000 -2.70000000
v 0.35242072 0.60750000 -2.67690113
v 0.69881142 0.60750000 -2.60799973
v 1.03324527 0.60750000 -2.49447474
v 1.35000000 0.60750000 -2.33826859
v 1.64365586 0.60750000 -2.14205402
v 1.90918831 0.60750000 -1.90918831
v 2.14205402 0.60750000 -1.64365586
v 2.33826859 0.60750000 -1.35000000
v 2.49447474 0.60750000 -1.03324527
v 2.60799973 0.60750000 -0.69881142
v 2.67690113 0.60750000 -0.35242072
v 3.00000000 0.75000000 0.00000000
v 2.97433458 0.75000000 0.39157858
v 2.89777748 0.75000000 0.77645714
v 2.77163860 0.75000000 1.14805030
v 2.59807621 0.75000000 1.50000000
v 2.38006002 0.75000000 1.82628429
v 2.12132034 0.75000000 2.12132034
v 1.82628429 0.75000000 2.38006002
v 1.50000000 0.75000000 2.59807621
v 1.14805030 0.75000000 2.77163860
v 0.77645714 0.75000000 2.89777748
v 0.39157858 0.75000000 2.97433458
v 0.00000000 0.75000000 3.00000000
v -0.39157858 0.75000000 2.97433458
v -0.77645714 0.75000000 2.89777748
v -1.14805030 0.75000000 2.77163860
v -1.50000000 0.75000000 2.59807621
v -1.82628429 0.75000000 2.38006002
v -2.12132034 0.75000000 2.12132034
v -2.38006002 0.75000000 1.82628429
v -2.59807621 0.75000000 1.50000000
v -2.77163860 0.75000000 1.14805030
v -2.89777748 0.75000000 0.77645714
v -2.97433458 0.75000000 0.39157858
v -3.00000000 0.75000000 0.00000000
v -2.97433458 0.75000000 -0.39157858
v -2.89777748 0.75000000 -0.77645714
v -2.77163860 0.75000000 -1.14805030
v -2.59807621 0.75000000 -1.50000000
v -2.38006002 0.75000000 -1.82628429
v -2.12132034 0.75000000 -2.12132034
v -1.82628429 0.75000000 -2.38006002
v -1.50000000 0.75000000 -2.59807621
v -1.14805030 0.75000000 -2.77163860
v -0.77645714 0.75000000 -2.89777748
v -0.39157858 0.75000000 -2.97433458
v -0.00000000 0.75000000 -3.00000000
v 0.39157858 0.75000000 -2.97433458
v 0.77645714 0.75000000 -2.89777748
v 1.14805030 0.75000000 -2.77163860
v 1.50000000 0.75000000 -2.59807621
v 1.82628429 0.75000000 -2.38006002
v 2.12132034 0.75000000 -2.12132034
v 2.38006002 0.75000000 -1.82628429
v 2.59807621 0.75000000 -1.50000000
v 2.77163860 0.75000000 -1.14805030
v 2.89777748 0.75000000 -0.77645714
v 2.97433458 0.75000000 -0.39157858
v 3.30000000 0.90750000 0.00000000
v 3.27176804 0.90750000 0.43073643
v 3.18755523 0.90750000 0.85410285
v 3.04880246 0.90750000 1.26285533
v 2.85788383 0.90750000 1.65000000
v 2.61806602 0.90750000 2.00891272
v 2.33345238 0.90750000 2.33345238
v 2.00891272 0.90750000 2.61806602
v 1.65000000 0.90750000 2.85788383
v 1.26285533 0.90750000 3.04880246
v 0.85410285 0.90750000 3.18755523
v 0.43073643 0.90750000 3.27176804
v 0.00000000 0.90750000 3.30000000
v -0.43073643 0.90750000 3.27176804
v -0.85410285 0.90750000 3.18755523
v -1.26285533 0.90750000 3.04880246
v -1.65000000 0.90750000 2.85788383
v -2.00891272 0.90750000 2.61806602
v -2.33345238 0.90750000 2.33345238
v -2.61806602 0.90750000 2.00891272
v -2.85788383 0.90750000 1.65000000
v -3.04880246 0.90750000 1.26285533
v -3.18755523 0.90750000 0.85410285
v -3.27176804 0.90750000 0.43073643
v -3.30000000 0.90750000 0.00000000
v -3.27176804 0.90750000 -0.43073643
v -3.18755523 0.90750000 -0.85410285
v -3.04880246 0.90750000 -1.26285533
v -2.85788383 0.90750000 -1.65000000
v -2.61806602 0.90750000 -2.00891272
v -2.33345238 0.90750000 -2.33345238
v -2.00891272 0.90750000 -2.61806602
v -1.65000000 0.90750000 -2.85788383
v -1.26285533 0.90750000 -3.04880246
v -0.85410285 0.90750000 -3.18755523
v -0.43073643 0.90750000 -3.27176804
v -0.00000000 0.90750000 -3.30000000
v 0.43073643 0.90750000 -3.27176804
v 0.85410285 0.90750000 -3.18755523
v 1.26285533 0.90750000 -3.04880246
v 1.65000000 0.90750000 -2.85788383
v 2.00891272 0.90750000 -2.61806602
v 2.33345238 0.90750000 -2.33345238
v 2.61806602 0.90750000 -2.00891272
v 2.85788383 0.90750000 -1.65000000
v 3.04880246 0.90750000 -1.26285533
v 3.18755523 0.90750000 -0.85410285
v 3.27176804 0.90750000 -0.43073643
v 3.60000000 1.08000000 0.00000000
v 3.56920150 1.08000000 0.46989429
v 3.47733297 1.08000000 0.93174856
v 3.32596632 1.08000000 1.37766036
v 3.11769145 1.08000000 1.80000000
v 2.85607203 1.08000000 2.19154114
v 2.54558441 1.08000000 2.54558441
v 2.19154114 1.08000000 2.85607203
v 1.80000000 1.08000000 3.11769145
v 1.37766036 1.08000000 3.32596632
v 0.93174856 1.08000000 3.47733297
v 0.46989429 1.08000000 3.56920150
v 0.00000000 1.08000000 3.60000000
v -0.46989429 1.08000000 3.56920150
v -0.93174856 1.08000000 3.47733297
v -1.37766036 1.08000000 3.32596632
v -1.80000000 1.08000000 3.11769145
v -2.19154114 1.08000000 2.85607203
v -2.54558441 1.08000000 2.54558441
v -2.85607203 1.08000000 2.19154114
v -3.11769145 1.08000000 1.80000000
v -3.32596632 1.08000000 1.37766036
v -3.47733297 1.08000000 0.93174856
v -3.56920150 1.08000000 0.46989429
v -3.60000000 1.08000000 0.00000000
v -3.56920150 1.08000000 -0.46989429
v -3.47733297 1.08000000 -0.93174856
v -3.32596632 1.08000000 -1.37766036
v -3.11769145 1.08000000 -1.80000000
v -2.85607203 1.08000000 -2.19154114
v -2.54558441 1.08000000 -2.54558441
v -2.19154114 1.08000000 -2.85607203
v -1.80000000 1.08000000 -3.11769145
v -1.37766036 1.08000000 -3.32596632
v -0.93174856 1.08000000 -3.47733297
v -0.46989429 1.08000000 -3.56920150
v -0.00000000 1.08000000 -3.60000000
v 0.46989429 1.08000000 -3.56920150
v 0.93174856 1.08000000 -3.47733297
v 1.37766036 1.08000000 -3.32596632
v 1.80000000 1.08000000 -3.11769145
v 2.19154114 1.08000000 -2.85607203
v 2.54558441 1.08000000 -2.54558441
v 2.85607203 1.08000000 -2.19154114
v 3.11769145 1.08000000 -1.80000000
v 3.32596632 1.08000000 -1.37766036
v 3.47733297 1.08000000 -0.93174856
v 3.56920150 1.08000000 -0.46989429
v 3.90000000 1.26750000 0.00000000
v 3.86663496 1.26750000 0.50905215
v 3.76711072 1.26750000 1.00939428
v 3.60313018 1.26750000 1.49246539
v 3.37749907 1.26750000 1.95000000
v 3.09407803 1.26750000 2.37416957
v 2.75771645 1.26750000 2.75771645
v 2.37416957 1.26750000 3.09407803
v 1.95000000 1.26750000 3.37749907
v 1.49246539 1.26750000 3.60313018
v 1.00939428 1.26750000 3.76711072
v 0.50905215 1.26750000 3.86663496
v 0.00000000 1.26750000 3.90000000
v -0.50905215 1.26750000 3.86663496
v -1.00939428 1.26750000 3.76711072
v -1.49246539 1.26750000 3.60313018
v -1.95000000 1.26750000 3.37749907
v -2.37416957 1.26750000 3.09407803
v -2.75771645 1.26750000 2.75771645
v -3.09407803 1.26750000 2.37416957
v -3.37749907 1.26750000 1.95000000
v -3.60313018 1.26750000 1.49246539
v -3.76711072 1.26750000 1.00939428
v -3.86663496 1.26750000 0.50905215
v -3.90000000 1.26750000 0.00000000
v -3.86663496 1.26750000 -0.50905215
v -3.76711072 1.26750000 -1.00939428
v -3.60313018 1.26750000 -1.49246539
v -3.37749907 1.26750000 -1.95000000
v -3.09407803 1.26750000 -2.37416957
v -2.75771645 1.26750000 -2.75771645
v -2.37416957 1.26750000 -3.09407803
v -1.95000000 1.26750000 -3.37749907
v -1.49246539 1.26750000 -3.60313018
v -1.00939428 1.26750000 -3.76711072
v -0.50905215 1.26750000 -3.86663496
v -0.00000000 1.26750000 -3.90000000
v 0.50905215 1.26750000 -3.86663496
v 1.00939428 1.26750000 -3.76711072
v 1.49246539 1.26750000 -3.60313018
v 1.95000000 1.26750000 -3.37749907
v 2.37416957 1.26750000 -3.09407803
v 2.75771645 1.26750000 -2.75771645
v 3.09407803 1.26750000 -2.37416957
v 3.37749907 1.26750000 -1.95000000
v 3.60313018 1.26750000 -1.49246539
v 3.76711072 1.26750000 -1.00939428
v 3.86663496 1.26750000 -0.50905215
v 4.20000000 1.47000000 0.00000000
v 4.16406842 1.47000000 0.54821001
v 4.05688847 1.47000000 1.08703999
v 3.88029404 1.47000000 1.60727042
v 3.63730670 1.47000000 2.10000000
v 3.33208403 1.47000000 2.55679800
v 2.96984848 1.47000000 2.96984848
v 2.55679800 1.47000000 3.33208403
v 2.10000000 1.47000000 3.63730670
v 1.60727042 1.47000000 3.88029404
v 1.08703999 1.47000000 4.05688847
v 0.54821001 1.47000000 4.16406842
v 0.00000000 1.47000000 4.20000000
v -0.54821001 1.47000000 4.16406842
v -1.08703999 1.47000000 4.05688847
v -1.60727042 1.47000000 3.88029404
v -2.10000000 1.47000000 3.63730670
v -2.55679800 1.47000000 3.33208403
v -2.96984848 1.47000000 2.96984848
v -3.33208403 1.47000000 2.55679800
v -3.63730670 1.47000000 2.10000000
v -3.88029404 1.47000000 1.60727042
v -4.05688847 1.47000000 1.08703999
v -4.16406842 1.47000000 0.54821001
v -4.20000000 1.47000000 0.00000000
v -4.16406842 1.47000000 -0.54821001
v -4.05688847 1.47000000 -1.08703999
v -3.88029404 1.47000000 -1.60727042
v -3.63730670 1.47000000 -2.10000000
v -3.33208403 1.47000000 -2.55679800
v -2.96984848 1.47000000 -2.96984848
v -2.55679800 1.47000000 -3.33208403
v -2.10000000 1.47000000 -3.63730670
v -1.60727042 1.47000000 -3.88029404
v -1.08703999 1.47000000 -4.05688847
v -0.54821001 1.47000000 -4.16406842
v -0.00000000 1.47000000 -4.20000000
v 0.54821001 1.47000000 -4.16406842
v 1.08703999 1.47000000 -4.05688847
v 1.60727042 1.47000000 -3.88029404
v 2.10000000 1.47000000 -3.63730670
v 2.55679800 1.47000000 -3.33208403
v 2.96984848 1.47000000 -2.96984848
v 3.33208403 1.47000000 -2.55679800
v 3.63730670 1.47000000 -2.10000000
v 3.88029404 1.47000000 -1.60727042
v 4.05688847 1.47000000 -1.08703999
v 4.16406842 1.47000000 -0.54821001
f 1 2 3
f 1 3 4
f 1 4 5
f 1 5 6
f 1 6 7
f 1 7 8
f 1 8 9
f 1 9 10
f 1 10 11
f 1 11 12
f 1 12 13
f 1 13 14
f 1 14 15
f 1 15 16
f 1 16 17
f 1 17 18
f 1 18 19
f 1 19 20
f 1 20 21
f 1 21 22
f 1 22 23
f 1 23 24
f 1 24 25
f 1 25 26
f 1 26 27
f 1 27 28
f 1 28 29
f 1 29 30
f 1 30 31
f 1 31 32
f 1 32 33
f 1 33 34
f 1 34 35
f 1 35 36
f 1 36 37
f 1 37 38
f 1 38 39
f 1 39 40
f 1 40 41
f 1 41 42
f 1 42 43
f 1 43 44
f 1 44 45
f 1 45 46
f 1 46 47
f 1 47 48
f 1 48 49
f 1 49 2
f 2 50 51
f 2 51 3
f 3 51 52
f 3 52 4
f 4 52 53
f 4 53 5
f 5 53 54
f 5 54 6
f 6 54 55
f 6 55 7
f 7 55 56
f 7 56 8
f 8 56 57
f 8 57 9
f 9 57 58
f 9 58 10
f 10 58 59
f 10 59 11
f 11 59 60
f 11 60 12
f 12 60 61
f 12 61 13
f 13 61 62
f 13 62 14
f 14 62 63
f 14 63 15
f 15 63 64
f 15 64 16
f 16 64 65
f 16 65 17
f 17 65 66
f 17 66 18
f 18 66 67
f 18 67 19
f 19 67 68
f 19 68 20
f 20 68 69
f 20 69 21
f 21 69 70
f 21 70 22
f 22 70 71
f 22 71 23
f 23 71 72
f 23 72 24
f 24 72 73
f 24 73 25
f 25 73 74
f 25 74 26
f 26 74 75
f 26 75 27
f 27 75 76
f 27 76 28
f 28 76 77
f 28 77 29
f 29 77 78
f 29 78 30
f 30 78 79
f 30 79 31
f 31 79 80
f 31 80 32
f 32 80 81
f 32 81 33
f 33 81 82
f 33 82 34
f 34 82 83
f 34 83 35
f 35 83 84
f 35 84 36
f 36 84 85
f 36 85 37
f 37 85 86
f 37 86 38
f 38 86 87
f 38 87 39
f 39 87 88
f 39 88 40
f 40 88 89
f 40 89 41
f 41 89 90
f 41 90 42
f 42 90 91
f 42 91 43
f 43 91 92
f 43 92 44
f 44 92 93
f 44 93 45
f 45 93 94
f 45 94 46
f 46 94 95
f 46 95 47
f 47 95 96
f 47 96 48
f 48 96 97
f 48 97 49
f 49 97 50
f 49 50 2
f 50 98 99
f 50 99 51
f 51 99 100
f 51 100 52
f 52 100 101
f 52 101 53
f 53 101 102
f 53 102 54
f 54 102 103
f 54 103 55
f 55 103 104
f 55 104 56
f 56 104 105
f 56 105 57
f 57 105 106
f 57 106 58
f 58 106 107
f 58 107 59
f 59 107 108
f 59 108 60
f 60 108 109
f 60 109 61
f 61 109 110
f 61 110 62
f 62 110 111
f 62 111 63
f 63 111 112
f 63 112 64
f 64 112 113
f 64 113 65
f 65 113 114
f 65 114 66
f 66 114 115
f 66 115 67
f 67 115 116
f 67 116 68
f 68 116 117
f 68 117 69
f 69 117 118
f 69 118 70
f 70 118 119
f 70 119 71
f 71 119 120
f 71 120 72
f 72 120 121
f 72 121 73
f 73 121 122
f 73 122 74
f 74 122 123
f 74 123 75
f 75 123 124
f 75 124 76
f 76 124 125
f 76 125 77
f 77 125 126
f 77 126 78
f 78 126 127
f 78 127 79
f 79 127 128
f 79 128 80
f 80 128 129
f 80 129 81
f 81 129 130
f 81 130 82
f 82 130 131
f 82 131 83
f 83 131 132
f 83 132 84
f 84 132 133
f 84 133 85
f 85 133 134
f 85 134 86
f 86 134 135
f 86 135 87
f 87 135 136
f 87 136 88
f 88 136 137
f 88 137 89
f 89 137 138
f 89 138 90
f 90 138 139
f 90 139 91
f 91 139 140
f 91 140 92
f 92 140 141
f 92 141 93
f 93 141 142
f 93 142 94
f 94 142 143
f 94 143 95
f 95 143 144
f 95 144 96
f 96 144 145
f 96 145 97
f 97 145 98
f 97 98 50
f 98 146 147
f 98 147 99
f 99 147 148
f 99 148 100
f 100 148 149
f 100 149 101
f 101 149 150
f 101 150 102
f 102 150 151
f 102 151 103
f 103 151 152
f 103 152 104
f 104 152 153
f 104 153 105
f 105 153 154
f 105 154 106
f 106 154 155
f 106 155 107
f 107 155 156
f 107 156 108
f 108 156 157
f 108 157 109
f 109 157 158
f 109 158 110
f 110 158 159
f 110 159 111
f 111 159 160
f 111 160 112
f 112 160 161
f 112 161 113
f 113 161 162
f 113 162 114
f 114 162 163
f 114 163 115
f 115 163 164
f 115 164 116
f 116 164 165
f 116 165 117
f 117 165 166
f 117 166 118
f 118 166 167
f 118 167 119
f 119 167 168
f 119 168 120
f 120 168 169
f 120 169 121
f 121 169 170
f 121 170 122
f 122 170 171
f 122 171 123
f 123 171 172
f 123 172 124
f 124 172 173
f 124 173 125
f 125 173 174
f 125 174 126
f 126 174 175
f 126 175 127
f 127 175 176
f 127 176 128
f 128 176 177
f 128 177 129
f 129 177 178
f 129 178 130
f 130 178 179
f 130 179 131
f 131 179 180
f 131 180 132
f 132 180 181
f 132 181 133
f 133 181 182
f 133 182 134
f 134 182 183
f 134 183 135
f 135 183 184
f 135 184 136
f 136 184 185
f 136 185 137
f 137 185 186
f 137 186 138
f 138 186 187
f 138 187 139
f 139 187 188
f 139 188 140
f 140 188 189
f 140 189 141
f 141 189 190
f 141 190 142
f 142 190 191
f 142 191 143
f 143 191 192
f 143 192 144
f 144 192 193
f 144 193 145
f 145 193 146
f 145 146 98
f 146 194 195
f 146 195 147
f 147 195 196
f 147 196 148
f 148 196 197
f 148 197 149
f 149 197 198
f 149 198 150
f 150 198 199
f 150 199 151
f 151 199 200
f 151 200 152
f 152 200 201
f 152 201 153
f 153 201 202
f 153 202 154
f 154 202 203
f 154 203 155
f 155 203 204
f 155 204 156
f 156 204 205
f 156 205 157
f 157 205 206
f 157 206 158
f 158 206 207
f 158 207 159
f 159 207 208
f 159 208 160
f 160 208 209
f 160 209 161
f 161 209 210
f 161 210 162
f 162 210 211
f 162 211 163
f 163 211 212
f 163 212 164
f 164 212 213
f 164 213 165
f 165 213 214
f 165 214 166
f 166 214 215
f 166 215 167
f 167 215 216
f 167 216 168
f 168 216 217
f 168 217 169
f 169 217 218
f 169 218 170
f 170 218 219
f 170 219 171
f 171 219 220
f 171 220 172
f 172 220 221
f 172 221 173
f 173 221 222
f 173 222 174
f 174 222 223
f 174 223 175
f 175 223 224
f 175 224 176
f 176 224 225
f 176 225 177
f 177 225 226
f 177 226 178
f 178 226 227
f 178 227 179
f 179 227 228
f 179 228 180
f 180 228 229
f 180 229 181
f 181 229 230
f 181 230 182
f 182 230 231
f 182 231 183
f 183 231 232
f 183 232 184
f 184 232 233
f 184 233 185
f 185 233 234
f 185 234 186
f 186 234 235
f 186 235 187
f 187 235 236
f 187 236 188
f 188 236 237
f 188 237 189
f 189 237 238
f 189 238 190
f 190 238 239
f 190 239 191
f 191 239 240
f 191 240 192
f 192 240 241
f 192 241 193
f 193 241 194
f 193 194 146
f 194 242 243
f 194 243 195
f 195 243 244
f 195 244 196
f 196 244 245
f 196 245 197
f 197 245 246
f 197 246 198
f 198 246 247
f 198 247 199
f 199 247 248
f 199 248 200
f 200 248 249
f 200 249 201
f 201 249 250
f 201 250 202
f 202 250 251
f 202 251 203
f 203 251 252
f 203 252 204
f 204 252 253
f 204 253 205
f 205 253 254
f 205 254 206
f 206 254 255
f 206 255 207
f 207 255 256
f 207 256 208
f 208 256 257
f 208 257 209
f 209 257 258
f 209 258 210
f 210 258 259
f 210 259 211
f 211 259 260
f 211 260 212
f 212 260 261
f 212 261 213
f 213 261 262
f 213 262 214
f 214 262 263
f 214 263 215
f 215 263 264
f 215 264 216
f 216 264 265
f 216 265 217
f 217 265 266
f 217 266 218
f 218 266 267
f 218 267 219
f 219 267 268
f 219 268 220
f 220 268 269
f 220 269 221
f 221 269 270
f 221 270 222
f 222 270 271
f 222 271 223
f 223 271 272
f 223 272 224
f 224 272 273
f 224 273 225
f 225 273 274
f 225 274 226
f 226 274 275
f 226 275 227
f 227 275 276
f 227 276 228
f 228 276 277
f 228 277 229
f 229 277 278
f 229 278 230
f 230 278 279
f 230 279 231
f 231 279 280
f 231 280 232
f 232 280 281
f 232 281 233
f 233 281 282
f 233 282 234
f 234 282 283
f 234 283 235
f 235 283 284
f 235 284 236
f 236 284 285
f 236 285 237
f 237 285 286
f 237 286 238
f 238 286 287
f 238 287 239
f 239 287 288
f 239 288 240
f 240 288 289
f 240 289 241
f 241 289 242
f 241 242 194
f 242 290 291
f 242 291 243
f 243 291 292
f 243 292 244
f 244 292 293
f 244 293 245
f 245 293 294
f 245 294 246
f 246 294 295
f 246 295 247
f 247 295 296
f 247 296 248
f 248 296 297
f 248 297 249
f 249 297 298
f 249 298 250
f 250 298 299
f 250 299 251
f 251 299 300
f 251 300 252
f 252 300 301
f 252 301 253
f 253 301 302
f 253 302 254
f 254 302 303
f 254 303 255
f 255 303 304
f 255 304 256
f 256 304 305
f 256 305 257
f 257 305 306
f 257 306 258
f 258 306 307
f 258 307 259
f 259 307 308
f 259 308 260
f 260 308 309
f 260 309 261
f 261 309 310
f 261 310 262
f 262 310 311
f 262 311 263
f 263 311 312
f 263 312 264
f 264 312 313
f 264 313 265
f 265 313 314
f 265 314 266
f 266 314 315
f 266 315 267
f 267 315 316
f 267 316 268
f 268 316 317
f 268 317 269
f 269 317 318
f 269 318 270
f 270 318 319
f 270 319 271
f 271 319 320
f 271 320 272
f 272 320 321
f 272 321 273
f 273 321 322
f 273 322 274
f 274 322 323
f 274 323 275
f 275 323 324
f 275 324 276
f 276 324 325
f 276 325 277
f 277 325 326
f 277 326 278
f 278 326 327
f 278 327 279
f 279 327 328
f 279 328 280
f 280 328 329
f 280 329 281
f 281 329 330
f 281 330 282
f 282 330 331
f 282 331 283
f 283 331 332
f 283 332 284
f 284 332 333
f 284 333 285
f 285 333 334
f 285 334 286
f 286 334 335
f 286 335 287
f 287 335 336
f 287 336 288
f 288 336 337
f 288 337 289
f 289 337 290
f 289 290 242
f 290 338 339
f 290 339 291
f 291 339 340
f 291 340 292
f 292 340 341
f 292 341 293
f 293 341 342
f 293 342 294
f 294 342 343
f 294 343 295
f 295 343 344
f 295 344 296
f 296 344 345
f 296 345 297
f 297 345 346
f 297 346 298
f 298 346 347
f 298 347 299
f 299 347 348
f 299 348 300
f 300 348 349
f 300 349 301
f 301 349 350
f 301 350 302
f 302 350 351
f 302 351 303
f 303 351 352
f 303 352 304
f 304 352 353
f 304 353 305
f 305 353 354
f 305 354 306
f 306 354 355
f 306 355 307
f 307 355 356
f 307 356 308
f 308 356 357
f 308 357 309
f 309 357 358
f 309 358 310
f 310 358 359
f 310 359 311
f 311 359 360
f 311 360 312
f 312 360 361
f 312 361 313
f 313 361 362
f 313 362 314
f 314 362 363
f 314 363 315
f 315 363 364
f 315 364 316
f 316 364 365
f 316 365 317
f 317 365 366
f 317 366 318
f 318 366 367
f 318 367 319
f 319 367 368
f 319 368 320
f 320 368 369
f 320 369 321
f 321 369 370
f 321 370 322
f 322 370 371
f 322 371 323
f 323 371 372
f 323 372 324
f 324 372 373
f 324 373 325
f 325 373 374
f 325 374 326
f 326 374 375
f 326 375 327
f 327 375 376
f 327 376 328
f 328 376 377
f 328 377 329
f 329 377 378
f 329 378 330
f 330 378 379
f 330 379 331
f 331 379 380
f 331 380 332
f 332 380 381
f 332 381 333
f 333 381 382
f 333 382 334
f 334 382 383
f 334 383 335
f 335 383 384
f 335 384 336
f 336 384 385
f 336 385 337
f 337 385 338
f 337 338 290
f 338 386 387
f 338 387 339
f 339 387 388
f 339 388 340
f 340 388 389
f 340 389 341
f 341 389 390
f 341 390 342
f 342 390 391
f 342 391 343
f 343 391 392
f 343 392 344
f 344 392 393
f 344 393 345
f 345 393 394
f 345 394 346
f 346 394 395
f 346 395 347
f 347 395 396
f 347 396 348
f 348 396 397
f 348 397 349
f 349 397 398
f 349 398 350
f 350 398 399
f 350 399 351
f 351 399 400
f 351 400 352
f 352 400 401
f 352 401 353
f 353 401 402
f 353 402 354
f 354 402 403
f 354 403 355
f 355 403 404
f 355 404 356
f 356 404 405
f 356 405 357
f 357 405 406
f 357 406 358
f 358 406 407
f 358 407 359
f 359 407 408
f 359 408 360
f 360 408 409
f 360 409 361
f 361 409 410
f 361 410 362
f 362 410 411
f 362 411 363
f 363 411 412
f 363 412 364
f 364 412 413
f 364 413 365
f 365 413 414
f 365 414 366
f 366 414 415
f 366 415 367
f 367 415 416
f 367 416 368
f 368 416 417
f 368 417 369
f 369 417 418
f 369 418 370
f 370 418 419
f 370 419 371
f 371 419 420
f 371 420 372
f 372 420 421
f 372 421 373
f 373 421 422
f 373 422 374
f 374 422 423
f 374 423 375
f 375 423 424
f 375 424 376
f 376 424 425
f 376 425 377
f 377 425 426
f 377 426 378
f 378 426 427
f 378 427 379
f 379 427 428
f 379 428 380
f 380 428 429
f 380 429 381
f 381 429 430
f 381 430 382
f 382 430 431
f 382 431 383
f 383 431 432
f 383 432 384
f 384 432 433
f 384 433 385
f 385 433 386
f 385 386 338
f 386 434 435
f 386 435 387
f 387 435 436
f 387 436 388
f 388 436 437
f 388 437 389
f 389 437 438
f 389 438 390
f 390 438 439
f 390 439 391
f 391 439 440
f 391 440 392
f 392 440 441
f 392 441 393
f 393 441 442
f 393 442 394
f 394 442 443
f 394 443 395
f 395 443 444
f 395 444 396
f 396 444 445
f 396 445 397
f 397 445 446
f 397 446 398
f 398 446 447
f 398 447 399
f 399 447 448
f 399 448 400
f 400 448 449
f 400 449 401
f 401 449 450
f 401 450 402
f 402 450 451
f 402 451 403
f 403 451 452
f 403 452 404
f 404 452 453
f 404 453 405
f 405 453 454
f 405 454 406
f 406 454 455
f 406 455 407
f 407 455 456
f 407 456 408
f 408 456 457
f 408 457 409
f 409 457 458
f 409 458 410
f 410 458 459
f 410 459 411
f 411 459 460
f 411 460 412
f 412 460 461
f 412 461 413
f 413 461 462
f 413 462 414
f 414 462 463
f 414 463 415
f 415 463 464
f 415 464 416
f 416 464 465
f 416 465 417
f 417 465 466
f 417 466 418
f 418 466 467
f 418 467 419
f 419 467 468
f 419 468 420
f 420 468 469
f 420 469 421
f 421 469 470
f 421 470 422
f 422 470 471
f 422 471 423
f 423 471 472
f 423 472 424
f 424 472 473
f 424 473 425
f 425 473 474
f 425 474 426
f 426 474 475
f 426 475 427
f 427 475 476
f 427 476 428
f 428 476 477
f 428 477 429
f 429 477 478
f 429 478 430
f 430 478 479
f 430 479 431
f 431 479 480
f 431 480 432
f 432 480 481
f 432 481 433
f 433 481 434
f 433 434 386
f 434 482 483
f 434 483 435
f 435 483 484
f 435 484 436
f 436 484 485
f 436 485 437
f 437 485 486
f 437 486 438
f 438 486 487
f 438 487 439
f 439 487 488
f 439 488 440
f 440 488 489
f 440 489 441
f 441 489 490
f 441 490 442
f 442 490 491
f 442 491 443
f 443 491 492
f 443 492 444
f 444 492 493
f 444 493 445
f 445 493 494
f 445 494 446
f 446 494 495
f 446 495 447
f 447 495 496
f 447 496 448
f 448 496 497
f 448 497 449
f 449 497 498
f 449 498 450
f 450 498 499
f 450 499 451
f 451 499 500
f 451 500 452
f 452 500 501
f 452 501 453
f 453 501 502
f 453 502 454
f 454 502 503
f 454 503 455
f 455 503 504
f 455 504 456
f 456 504 505
f 456 505 457
f 457 505 506
f 457 506 458
f 458 506 507
f 458 507 459
f 459 507 508
f 459 508 460
f 460 508 509
f 460 509 461
f 461 509 510
f 461 510 462
f 462 510 511
f 462 511 463
f 463 511 512
f 463 512 464
f 464 512 513
f 464 513 465
f 465 513 514
f 465 514 466
f 466 514 515
f 466 515 467
f 467 515 516
f 467 516 468
f 468 516 517
f 468 517 469
f 469 517 518
f 469 518 470
f 470 518 519
f 470 519 471
f 471 519 520
f 471 520 472
f 472 520 521
f 472 521 473
f 473 521 522
f 473 522 474
f 474 522 523
f 474 523 475
f 475 523 524
f 475 524 476
f 476 524 525
f 476 525 477
f 477 525 526
f 477 526 478
f 478 526 527
f 478 527 479
f 479 527 528
f 479 528 480
f 480 528 529
f 480 529 481
f 481 529 482
f 481 482 434
f 482 530 531
f 482 531 483
f 483 531 532
f 483 532 484
f 484 532 533
f 484 533 485
f 485 533 534
f 485 534 486
f 486 534 535
f 486 535 487
f 487 535 536
f 487 536 488
f 488 536 537
f 488 537 489
f 489 537 538
f 489 538 490
f 490 538 539
f 490 539 491
f 491 539 540
f 491 540 492
f 492 540 541
f 492 541 493
f 493 541 542
f 493 542 494
f 494 542 543
f 494 543 495
f 495 543 544
f 495 544 496
f 496 544 545
f 496 545 497
f 497 545 546
f 497 546 498
f 498 546 547
f 498 547 499
f 499 547 548
f 499 548 500
f 500 548 549
f 500 549 501
f 501 549 550
f 501 550 502
f 502 550 551
f 502 551 503
f 503 551 552
f 503 552 504
f 504 552 553
f 504 553 505
f 505 553 554
f 505 554 506
f 506 554 555
f 506 555 507
f 507 555 556
f 507 556 508
f 508 556 557
f 508 557 509
f 509 557 558
f 509 558 510
f 510 558 559
f 510 559 511
f 511 559 560
f 511 560 512
f 512 560 561
f 512 561 513
f 513 561 562
f 513 562 514
f 514 562 563
f 514 563 515
f 515 563 564
f 515 564 516
f 516 564 565
f 516 565 517
f 517 565 566
f 517 566 518
f 518 566 567
f 518 567 519
f 519 567 568
f 519 568 520
f 520 568 569
f 520 569 521
f 521 569 570
f 521 570 522
f 522 570 571
f 522 571 523
f 523 571 572
f 523 572 524
f 524 572 573
f 524 573 525
f 525 573 574
f 525 574 526
f 526 574 575
f 526 575 527
f 527 575 576
f 527 576 528
f 528 576 577
f 528 577 529
f 529 577 530
f 529 530 482
f 530 578 579
f 530 579 531
f 531 579 580
f 531 580 532
f 532 580 581
f 532 581 533
f 533 581 582
f 533 582 534
f 534 582 583
f 534 583 535
f 535 583 584
f 535 584 536
f 536 584 585
f 536 585 537
f 537 585 586
f 537 586 538
f 538 586 587
f 538 587 539
f 539 587 588
f 539 588 540
f 540 588 589
f 540 589 541
f 541 589 590
f 541 590 542
f 542 590 591
f 542 591 543
f 543 591 592
f 543 592 544
f 544 592 593
f 544 593 545
f 545 593 594
f 545 594 546
f 546 594 595
f 546 595 547
f 547 595 596
f 547 596 548
f 548 596 597
f 548 597 549
f 549 597 598
f 549 598 550
f 550 598 599
f 550 599 551
f 551 599 600
f 551 600 552
f 552 600 601
f 552 601 553
f 553 601 602
f 553 602 554
f 554 602 603
f 554 603 555
f 555 603 604
f 555 604 556
f 556 604 605
f 556 605 557
f 557 605 606
f 557 606 558
f 558 606 607
f 558 607 559
f 559 607 608
f 559 608 560
f 560 608 609
f 560 609 561
f 561 609 610
f 561 610 562
f 562 610 611
f 562 611 563
f 563 611 612
f 563 612 564
f 564 612 613
f 564 613 565
f 565 613 614
f 565 614 566
f 566 614 615
f 566 615 567
f 567 615 616
f 567 616 568
f 568 616 617
f 568 617 569
f 569 617 618
f 569 618 570
f 570 618 619
f 570 619 571
f 571 619 620
f 571 620 572
f 572 620 621
f 572 621 573
f 573 621 622
f 573 622 574
f 574 622 623
f 574 623 575
f 575 623 624
f 575 624 576
f 576 624 625
f 576 625 577
f 577 625 578
f 577 578 530
f 578 626 627
f 578 627 579
f 579 627 628
f 579 628 580
f 580 628 629
f 580 629 581
f 581 629 630
f 581 630 582
f 582 630 631
f 582 631 583
f 583 631 632
f 583 632 584
f 584 632 633
f 584 633 585
f 585 633 634
f 585 634 586
f 586 634 635
f 586 635 587
f 587 635 636
f 587 636 588
f 588 636 637
f 588 637 589
f 589 637 638
f 589 638 590
f 590 638 639
f 590 639 591
f 591 639 640
f 591 640 592
f 592 640 641
f 592 641 593
f 593 641 642
f 593 642 594
f 594 642 643
f 594 643 595
f 595 643 644
f 595 644 596
f 596 644 645
f 596 645 597
f 597 645 646
f 597 646 598
f 598 646 647
f 598 647 599
f 599 647 648
f 599 648 600
f 600 648 649
f 600 649 601
f 601 649 650
f 601 650 602
f 602 650 651
f 602 651 603
f 603 651 652
f 603 652 604
f 604 652 653
f 604 653 605
f 605 653 654
f 605 654 606
f 606 654 655
f 606 655 607
f 607 655 656
f 607 656 608
f 608 656 657
f 608 657 609
f 609 657 658
f 609 658 610
f 610 658 659
f 610 659 611
f 611 659 660
f 611 660 612
f 612 660 661
f 612 661 613
f 613 661 662
f 613 662 614
f 614 662 663
f 614 663 615
f 615 663 664
f 615 664 616
f 616 664 665
f 616 665 617
f 617 665 666
f 617 666 618
f 618 666 667
f 618 667 619
f 619 667 668
f 619 668 620
f 620 668 669
f 620 669 621
f 621 669 670
f 621 670 622
f 622 670 671
f 622 671 623
f 623 671 672
f 623 672 624
f 624 672 673
f 624 673 625
f 625 673 626
f 625 626 578

o FeedSupport_0
v 3.80000000 1.20000000 -0.00000000
v 3.81333705 1.22357246 0.04786922
v 0.01333705 3.37357246 0.04786922
v 0.00000000 3.35000000 0.00000000
v 3.82464544 1.24355939 0.02280750
v 0.02464544 3.39355939 0.02280750
v 3.82654012 1.24690811 -0.01096592
v 0.02654012 3.39690811 -0.01096592
v 3.81829737 1.23233953 -0.04055072
v 0.01829737 3.38233953 -0.04055072
v 3.80306564 1.20541835 -0.05464653
v 0.00306564 3.35541835 -0.05464653
v 3.78666295 1.17642754 -0.04786922
v -0.01333705 3.32642754 -0.04786922
v 3.77535456 1.15644061 -0.02280750
v -0.02464544 3.30644061 -0.02280750
v 3.77345988 1.15309189 0.01096592
v -0.02654012 3.30309189 0.01096592
v 3.78170263 1.16766047 0.04055072
v -0.01829737 3.31766047 0.04055072
v 3.79693436 1.19458165 0.05464653
v -0.00306564 3.34458165 0.05464653
f 675 674 678
f 675 678 676
f 676 678 679
f 676 679 677
f 678 674 680
f 678 680 679
f 679 680 681
f 679 681 677
f 680 674 682
f 680 682 681
f 681 682 683
f 681 683 677
f 682 674 684
f 682 684 683
f 683 684 685
f 683 685 677
f 684 674 686
f 684 686 685
f 685 686 687
f 685 687 677
f 686 674 688
f 686 688 687
f 687 688 689
f 687 689 677
f 688 674 690
f 688 690 689
f 689 690 691
f 689 691 677
f 690 674 692
f 690 692 691
f 691 692 693
f 691 693 677
f 692 674 694
f 692 694 693
f 693 694 695
f 693 695 677
f 694 674 675
f 694 675 695
f 695 675 676
f 695 676 677

o FeedSupport_1
v -1.90000000 1.20000000 3.29089653
v -1.88729651 1.15213816 3.26696192
v 0.01270349 3.30213816 -0.02393461
v -0.00000000 3.35000000 0.00000000
v -1.91785514 1.16177302 3.25561351
v -0.01785514 3.31177302 -0.03528302
v -1.94159372 1.18600929 3.25774201
v -0.04159372 3.33600929 -0.03315452
v -1.94944491 1.21558953 3.27253442
v -0.04944491 3.36558953 -0.01836212
v -1.93840982 1.23921510 3.29434052
v -0.03840982 3.38921510 0.00344399
v -1.91270349 1.24786184 3.31483114
v -0.01270349 3.39786184 0.02393461
v -1.88214486 1.23822698 3.32617956
v 0.01785514 3.38822698 0.03528302
v -1.85840628 1.21399071 3.32405106
v 0.04159372 3.36399071 0.03315452
v -1.85055509 1.18441047 3.30925865
v 0.04944491 3.33441047 0.01836212
v -1.86159018 1.16078490 3.28745255
v 0.03840982 3.31078490 -0.00344399
f 697 696 700
f 697 700 698
f 698 700 701
f 698 701 699
f 700 696 702
f 700 702 701
f 701 702 703
f 701 703 699
f 702 696 704
f 702 704 703
f 703 704 705
f 703 705 699
f 704 696 706
f 704 706 705
f 705 706 707
f 705 707 699
f 706 696 708
f 706 708 707
f 707 708 709
f 707 709 699
f 708 696 710
f 708 710 709
f 709 710 711
f 709 711 699
f 710 696 712
f 710 712 711
f 711 712 713
f 711 713 699
f 712 696 714
f 712 714 713
f 713 714 715
f 713 715 699
f 714 696 716
f 714 716 715
f 715 716 717
f 715 717 699
f 716 696 697
f 716 697 717
f 717 697 698
f 717 698 699

o FeedSupport_2
v -1.90000000 1.20000000 -3.29089653
v -1.85093914 1.19327939 -3.31483114
v 0.04906086 3.34327939 -0.02393461
v 0.00000000 3.35000000 0.00000000
v -1.86425921 1.22242106 -3.32617956
v 0.03574079 3.37242106 -0.03528302
v -1.89123104 1.24299864 -3.32405106
v 0.00876896 3.39299864 -0.03315452
v -1.92155232 1.24715220 -3.30925865
v -0.02155232 3.39715220 -0.01836212
v -1.94364134 1.23329523 -3.28745255
v -0.04364134 3.38329523 0.00344399
v -1.94906086 1.20672061 -3.26696192
v -0.04906086 3.35672061 0.02393461
v -1.93574079 1.17757894 -3.25561351
v -0.03574079 3.32757894 0.03528302
v -1.90876896 1.15700136 -3.25774201
v -0.00876896 3.30700136 0.03315452
v -1.87844768 1.15284780 -3.27253442
v 0.02155232 3.30284780 0.01836212
v -1.85635866 1.16670477 -3.29434052
v 0.04364134 3.31670477 -0.00344399
f 719 718 722
f 719 722 720
f 720 722 723
f 720 723 721
f 722 718 724
f 722 724 723
f 723 724 725
f 723 725 721
f 724 718 726
f 724 726 725
f 725 726 727
f 725 727 721
f 726 718 728
f 726 728 727
f 727 728 729
f 727 729 721
f 728 718 730
f 728 730 729
f 729 730 731
f 729 731 721
f 730 718 732
f 730 732 731
f 731 732 733
f 731 733 721
f 732 718 734
f 732 734 733
f 733 734 735
f 733 735 721
f 734 718 736
f 734 736 735
f 735 736 737
f 735 737 721
f 736 718 738
f 736 738 737
f 737 738 739
f 737 739 721
f 738 718 719
f 738 719 739
f 739 719 720
f 739 720 721

o Feed
v 0.00000000 3.79000000 -0.00000000
v 0.13000000 3.79000000 -0.00000000
v 0.13000000 3.31000000 0.00000000
v 0.00000000 3.31000000 0.00000000
v 0.12010434 3.79000000 0.04974885
v 0.12010434 3.31000000 0.04974885
v 0.09192388 3.79000000 0.09192388
v 0.09192388 3.31000000 0.09192388
v 0.04974885 3.79000000 0.12010434
v 0.04974885 3.31000000 0.12010434
v 0.00000000 3.79000000 0.13000000
v 0.00000000 3.31000000 0.13000000
v -0.04974885 3.79000000 0.12010434
v -0.04974885 3.31000000 0.12010434
v -0.09192388 3.79000000 0.09192388
v -0.09192388 3.31000000 0.09192388
v -0.12010434 3.79000000 0.04974885
v -0.12010434 3.31000000 0.04974885
v -0.13000000 3.79000000 0.00000000
v -0.13000000 3.31000000 0.00000000
v -0.12010434 3.79000000 -0.04974885
v -0.12010434 3.31000000 -0.04974885
v -0.09192388 3.79000000 -0.09192388
v -0.09192388 3.31000000 -0.09192388
v -0.04974885 3.79000000 -0.12010434
v -0.04974885 3.31000000 -0.12010434
v -0.00000000 3.79000000 -0.13000000
v -0.00000000 3.31000000 -0.13000000
v 0.04974885 3.79000000 -0.12010434
v 0.04974885 3.31000000 -0.12010434
v 0.09192388 3.79000000 -0.09192388
v 0.09192388 3.31000000 -0.09192388
v 0.12010434 3.79000000 -0.04974885
v 0.12010434 3.31000000 -0.04974885
f 741 740 744
f 741 744 742
f 742 744 745
f 742 745 743
f 744 740 746
f 744 746 745
f 745 746 747
f 745 747 743
f 746 740 748
f 746 748 747
f 747 748 749
f 747 749 743
f 748 740 750
f 748 750 749
f 749 750 751
f 749 751 743
f 750 740 752
f 750 752 751
f 751 752 753
f 751 753 743
f 752 740 754
f 752 754 753
f 753 754 755
f 753 755 743
f 754 740 756
f 754 756 755
f 755 756 757
f 755 757 743
f 756 740 758
f 756 758 757
f 757 758 759
f 757 759 743
f 758 740 760
f 758 760 759
f 759 760 761
f 759 761 743
f 760 740 762
f 760 762 761
f 761 762 763
f 761 763 743
f 762 740 764
f 762 764 763
f 763 764 765
f 763 765 743
f 764 740 766
f 764 766 765
f 765 766 767
f 765 767 743
f 766 740 768
f 766 768 767
f 767 768 769
f 767 769 743
f 768 740 770
f 768 770 769
f 769 770 771
f 769 771 743
f 770 740 772
f 770 772 771
f 771 772 773
f 771 773 743
f 772 740 741
f 772 741 773
f 773 741 742
f 773 742 743

